<svg viewBox="0 0 18 18" fill="currentColor" xmlns="http://www.w3.org/2000/svg">
<path d="M8.99935 0.667969C11.2635 0.667969 11.546 0.676302 12.4343 0.717969C13.3218 0.759635 13.926 0.898802 14.4577 1.10547C15.0077 1.31714 15.471 1.6038 15.9343 2.0663C16.3581 2.48288 16.686 2.98679 16.8952 3.54297C17.101 4.0738 17.241 4.6788 17.2827 5.5663C17.3218 6.45464 17.3327 6.73714 17.3327 9.0013C17.3327 11.2655 17.3243 11.548 17.2827 12.4363C17.241 13.3238 17.101 13.928 16.8952 14.4596C16.6866 15.0161 16.3586 15.5201 15.9343 15.9363C15.5177 16.3599 15.0138 16.6878 14.4577 16.8971C13.9268 17.103 13.3218 17.243 12.4343 17.2846C11.546 17.3238 11.2635 17.3346 8.99935 17.3346C6.73518 17.3346 6.45268 17.3263 5.56435 17.2846C4.67685 17.243 4.07268 17.103 3.54102 16.8971C2.98462 16.6884 2.48062 16.3604 2.06435 15.9363C1.64052 15.5198 1.31263 15.0159 1.10352 14.4596C0.896849 13.9288 0.757682 13.3238 0.716016 12.4363C0.676849 11.548 0.666016 11.2655 0.666016 9.0013C0.666016 6.73714 0.674349 6.45464 0.716016 5.5663C0.757682 4.67797 0.896849 4.07464 1.10352 3.54297C1.31205 2.98645 1.64002 2.4824 2.06435 2.0663C2.48074 1.64233 2.98471 1.31441 3.54102 1.10547C4.07268 0.898802 4.67602 0.759635 5.56435 0.717969C6.45268 0.678802 6.73518 0.667969 8.99935 0.667969ZM8.99935 4.83464C7.89428 4.83464 6.83447 5.27362 6.05307 6.05502C5.27167 6.83643 4.83268 7.89623 4.83268 9.0013C4.83268 10.1064 5.27167 11.1662 6.05307 11.9476C6.83447 12.729 7.89428 13.168 8.99935 13.168C10.1044 13.168 11.1642 12.729 11.9456 11.9476C12.727 11.1662 13.166 10.1064 13.166 9.0013C13.166 7.89623 12.727 6.83643 11.9456 6.05502C11.1642 5.27362 10.1044 4.83464 8.99935 4.83464ZM14.416 4.6263C14.416 4.35003 14.3063 4.08508 14.1109 3.88973C13.9156 3.69438 13.6506 3.58464 13.3743 3.58464C13.0981 3.58464 12.8331 3.69438 12.6378 3.88973C12.4424 4.08508 12.3327 4.35003 12.3327 4.6263C12.3327 4.90257 12.4424 5.16752 12.6378 5.36287C12.8331 5.55822 13.0981 5.66797 13.3743 5.66797C13.6506 5.66797 13.9156 5.55822 14.1109 5.36287C14.3063 5.16752 14.416 4.90257 14.416 4.6263ZM8.99935 6.5013C9.66239 6.5013 10.2983 6.76469 10.7671 7.23353C11.236 7.70238 11.4993 8.33826 11.4993 9.0013C11.4993 9.66434 11.236 10.3002 10.7671 10.7691C10.2983 11.2379 9.66239 11.5013 8.99935 11.5013C8.33631 11.5013 7.70042 11.2379 7.23158 10.7691C6.76274 10.3002 6.49935 9.66434 6.49935 9.0013C6.49935 8.33826 6.76274 7.70238 7.23158 7.23353C7.70042 6.76469 8.33631 6.5013 8.99935 6.5013Z" fill="currentColor"/>
</svg>
