<svg width="103" height="31" viewBox="0 0 103 31" fill="none" xmlns="http://www.w3.org/2000/svg">
<path d="M4.99222 30.5973C4.81025 30.5109 4.4635 30.3156 4.22166 30.1634C3.53425 29.7308 3.34009 29.6478 2.89962 29.5982C2.41384 29.5435 2.23885 29.43 1.82559 28.902C1.67425 28.7087 1.39152 28.4235 1.19729 28.2683C0.421456 27.6484 0.25494 27.3063 0.177424 26.1728C0.149393 25.763 0.0980052 25.1478 0.0632292 24.8056L0 24.1836L0.180919 23.7016C0.609556 22.5598 1.07801 21.7959 1.72342 21.1862C2.26133 20.6781 2.73974 20.4176 3.04489 20.4666C3.23494 20.4971 3.2755 20.4787 3.51828 20.2524C3.89327 19.9029 4.0316 19.8466 4.83261 19.7164C5.22331 19.653 5.74088 19.5415 5.98277 19.4688C6.22465 19.396 6.59573 19.3191 6.80738 19.2979C7.01903 19.2766 7.31588 19.2126 7.46706 19.1557C7.65529 19.0848 7.88627 19.0521 8.19984 19.0521C8.74557 19.052 9.07696 18.9356 9.89837 18.4553L10.4357 18.1412L10.9669 18.1555C11.5766 18.1718 11.7455 18.125 11.8565 17.909C12.0633 17.5069 12.2194 16.0303 12.1174 15.442C12.0462 15.0319 11.8494 14.5387 11.7109 14.4238C11.6618 14.3831 11.3424 14.314 11.0011 14.2703C10.5582 14.2137 10.302 14.1503 10.1058 14.0489C9.77417 13.8776 9.52654 13.8727 8.97327 14.0266C8.442 14.1744 8.33747 14.1683 8.04976 13.9725C7.84633 13.8341 7.75416 13.808 7.47034 13.808C7.28471 13.808 6.99037 13.7707 6.81624 13.7251C6.38559 13.6126 6.09435 13.6211 5.68985 13.7582C5.28021 13.8971 5.02072 14.1326 5.02072 14.3655C5.02072 14.4588 5.12948 14.7161 5.27605 14.9693L5.53138 15.4106L5.5007 15.9479C5.46374 16.5951 5.26094 17.2857 5.01751 17.5933C4.62704 18.0866 4.25863 18.2036 3.57125 18.0522C3.21755 17.9744 3.0806 17.968 2.81929 18.0168C2.54665 18.0676 2.46091 18.0617 2.23473 17.9759C1.86301 17.8349 1.38309 17.4973 1.16967 17.2268C0.84469 16.8147 0.622279 15.8941 0.623833 14.9671C0.62608 13.627 1.07443 12.7721 2.05819 12.232C2.33732 12.0788 2.62005 11.8483 3.00962 11.4563C3.31448 11.1496 3.67152 10.831 3.80304 10.7483C3.93456 10.6656 4.19146 10.4876 4.37392 10.3528L4.70566 10.1075L5.56411 10.1211C6.25561 10.132 6.4867 10.1155 6.7524 10.0364C6.93382 9.98245 7.41921 9.90603 7.83105 9.86661C8.53679 9.79908 8.59886 9.78337 8.91023 9.59345C9.27628 9.37017 9.39682 9.35467 9.8505 9.47254C10.0212 9.51688 10.4702 9.5914 10.8483 9.63815C11.6907 9.74227 11.8107 9.77576 12.209 10.0181C12.3826 10.1237 12.7597 10.3028 13.0469 10.4161C13.5503 10.6147 13.5901 10.6434 14.1488 11.2122C14.8746 11.9509 15.2351 12.4291 15.5437 13.0627C15.8912 13.7761 16.0109 14.2243 16.0966 15.1328C16.1382 15.573 16.2138 16.0522 16.2647 16.1977C16.3407 16.4149 16.3464 16.5056 16.2963 16.7051C16.2184 17.0159 16.2193 17.2998 16.2998 17.7711C16.3526 18.0804 16.3479 18.2867 16.2736 18.9175C16.2238 19.3406 16.1556 20.1712 16.122 20.7632C16.0885 21.3552 16.0351 21.939 16.0034 22.0605C15.8993 22.4597 15.8912 22.9486 15.9834 23.2672C16.108 23.6973 16.092 23.9368 15.9073 24.4064C15.8104 24.6527 15.7437 24.9262 15.7425 25.0814C15.7397 25.4788 16.1796 26.5599 16.3748 26.6352C16.424 26.6541 16.561 26.6696 16.6791 26.6696C16.8814 26.6696 16.9099 26.6476 17.1691 26.2897C17.478 25.8632 17.6906 25.7313 18.0685 25.7313C18.5156 25.7313 20.4254 25.9504 21.0623 26.0748C21.7559 26.2102 21.8117 26.1989 21.9629 25.8919C22.1076 25.5978 22.1615 25.2798 22.3675 23.501C22.6103 21.4051 22.6136 21.3082 22.4491 21.0849C22.3259 20.9175 22.3226 20.8857 22.3559 20.1886C22.375 19.7912 22.4177 19.1058 22.4509 18.6656C22.5162 17.801 22.4866 16.9697 22.3597 16.1026C22.2428 15.3039 22.2511 14.7958 22.3899 14.2552C22.5749 13.5347 22.5666 13.4618 22.2387 12.9268C21.8905 12.3587 21.8759 12.1776 22.1205 11.4585C22.3004 10.9294 22.3022 10.8396 22.1433 10.2642L22.0412 9.89447L22.1695 9.61938C22.335 9.26457 22.3084 9.09762 21.9617 8.31512C21.8138 7.98137 21.6491 7.57168 21.5958 7.4047C21.431 6.88905 21.302 6.81655 20.9082 7.0183C20.6119 7.1701 20.3905 7.1569 19.9825 6.96306C19.5822 6.77292 19.4971 6.76321 19.3205 6.88745C19.1377 7.01598 18.8086 7.07856 18.6124 7.02208C18.5201 6.99549 18.3222 6.8766 18.1726 6.7579C18.0231 6.63919 17.6618 6.40919 17.3698 6.24677C16.734 5.89309 16.3474 5.52025 16.117 5.03875C15.7844 4.34334 15.9341 3.51063 16.5576 2.58841C16.988 1.95188 17.4041 1.52732 17.7848 1.33628C18.2175 1.11915 18.473 1.11912 19.0847 1.33614C19.8876 1.62101 20.2811 1.6833 21.8702 1.77722C22.4145 1.80938 23.0329 1.87153 23.2446 1.91533C23.7501 2.01992 23.8293 2.01679 24.2684 1.87476L24.6404 1.75447L25.042 1.95382C25.6283 2.24489 25.7401 2.38412 25.8354 2.94216C25.9924 3.86171 26.4688 5.44905 26.7421 5.96326C26.9718 6.39553 26.9617 6.78969 26.7027 7.49856C26.4007 8.32509 26.4041 8.30728 26.3507 9.3485C26.3032 10.2743 26.2909 10.3491 26.1194 10.7561L25.9383 11.1859V13.4216V15.6572L26.1795 16.2593L26.4207 16.8614L26.2196 17.4738C26.109 17.8105 26.0191 18.1815 26.0197 18.2981C26.0203 18.4149 26.0984 18.7612 26.1932 19.0678C26.3656 19.6248 26.3657 19.6256 26.2967 20.1687C26.2061 20.8828 26.2126 21.053 26.3467 21.4808C26.4884 21.9331 26.4882 22.1112 26.3451 22.7858C26.2579 23.1965 26.2279 23.5468 26.2226 24.2133C26.2149 25.1889 26.2788 25.6042 26.5002 26.0171C26.6572 26.31 26.6774 26.32 27.5444 26.5383C28.105 26.6795 28.185 26.6872 28.424 26.624C28.5687 26.5858 28.8849 26.4243 29.1268 26.2652C29.9511 25.7231 29.8809 25.7356 31.6006 25.8298C32.5374 25.881 33.7557 25.918 33.9723 25.9016C34.1432 25.8887 34.3818 24.905 34.5382 23.5692C34.601 23.0328 34.717 22.2915 34.7959 21.9218C34.9495 21.2025 34.9467 21.1722 34.6971 20.8604C34.5769 20.7102 34.5766 20.7029 34.642 19.784C34.7362 18.4627 34.7254 16.7013 34.617 15.7077L34.5262 14.8749L34.6716 14.2173C34.8709 13.3161 34.8658 13.2495 34.5603 12.7577C34.2376 12.2382 34.2028 11.9861 34.3804 11.454C34.5275 11.0132 34.5472 10.518 34.4376 10.0155C34.3671 9.69245 34.3695 9.66192 34.4798 9.47418C34.6483 9.18738 34.6258 8.95812 34.3698 8.35409C34.245 8.05963 34.058 7.59514 33.9544 7.3219C33.7224 6.71047 33.6382 6.57669 33.4852 6.57669C33.4195 6.57669 33.2722 6.64179 33.1578 6.72135L32.95 6.866L32.5078 6.77655C32.2646 6.72735 31.9313 6.6871 31.7671 6.6871C31.477 6.6871 31.4638 6.68029 31.3056 6.44932C31.0768 6.11551 31.0438 6.09604 30.6008 6.03444C30.3085 5.99379 30.1416 5.93525 29.9597 5.80963C29.6303 5.58203 29.3364 5.23432 29.1618 4.86548C28.9647 4.44924 28.9584 3.70944 29.1468 3.09906C29.3265 2.51687 29.7167 1.78311 30.0101 1.47562C30.2593 1.21448 30.7307 0.947792 30.9448 0.946778C31.0075 0.946481 31.3197 1.04501 31.6388 1.16573C31.9578 1.28645 32.3642 1.39992 32.5419 1.41789C32.7196 1.43585 33.0135 1.50435 33.1949 1.57012C33.4877 1.67627 33.6173 1.6879 34.3493 1.67371C35.1237 1.65871 35.1969 1.66645 35.5518 1.80088L35.9296 1.94402L36.4191 1.79941L36.9085 1.65481L37.2507 1.82168C37.6756 2.02895 37.7655 2.10153 37.8395 2.29689C37.8718 2.38205 38.0448 3.04768 38.2241 3.77607C38.4982 4.88971 38.5953 5.19267 38.8342 5.68036C39.0957 6.21397 39.1159 6.2829 39.0863 6.54271C39.0686 6.69803 38.9517 7.09834 38.8266 7.4323C38.6101 8.01028 38.5957 8.08732 38.5277 9.03311C38.4646 9.91186 38.4362 10.0809 38.2822 10.4953C38.0726 11.0596 38.0092 11.6459 38.0078 13.0352C38.0064 14.428 38.079 15.1657 38.2795 15.7952C38.5436 16.6248 38.5487 16.8762 38.3144 17.5299L38.1181 18.0777L38.3163 18.6603L38.5146 19.2428L38.4766 20.0763C38.4398 20.8852 38.4429 20.9222 38.5852 21.3356L38.7317 21.7617L38.5615 22.6562C38.3205 23.9226 38.2809 24.2113 38.2804 24.7016C38.28 25.1022 38.2971 25.1678 38.5072 25.5735C38.7742 26.0887 38.8213 26.1198 39.6339 26.3164C40.3112 26.4803 40.5051 26.4742 41.2475 26.2654C41.8529 26.0951 42.8047 25.9844 43.2001 26.0381C43.7155 26.1081 44.0806 26.3663 44.3485 26.8504C44.6033 27.3105 44.7021 27.7971 44.612 28.1471C44.4578 28.7463 43.9378 29.5775 43.5931 29.7758C43.5196 29.818 43.2361 29.8451 42.8428 29.8473C42.343 29.8502 42.095 29.8816 41.6585 29.9973L41.1064 30.1434L40.669 30.0362C40.0569 29.8861 39.5288 29.8481 39.0626 29.9208C38.7631 29.9674 38.4337 29.9665 37.7433 29.9171C36.2708 29.8117 35.7991 29.823 35.236 29.9776C34.7054 30.1232 34.6943 30.1223 34.0195 29.8714C33.7104 29.7565 33.6618 29.753 33.2483 29.817L32.807 29.8853L32.4665 29.7127C32.2792 29.6178 32.0606 29.5401 31.9806 29.5401C31.8993 29.5401 31.7112 29.6313 31.5538 29.7471L31.2723 29.9541L30.7364 29.9386C30.3071 29.9261 30.0843 29.9517 29.6162 30.0671C29.0592 30.2045 29.0097 30.2079 28.5571 30.1407C28.2725 30.0984 27.4987 30.0684 26.6255 30.0656C25.8242 30.0631 24.9089 30.0413 24.5915 30.0169C24.0357 29.9743 23.9964 29.9789 23.5356 30.1385L23.0571 30.3043L22.6561 30.1293C22.2738 29.9625 22.226 29.955 21.6332 29.9687C21.019 29.9828 21.0063 29.9805 20.6161 29.787C20.2892 29.6249 20.1831 29.597 20.0011 29.625C19.6677 29.6763 19.0105 29.8647 18.7494 29.9837C18.5696 30.0656 18.3898 30.09 17.9573 30.0909C17.6496 30.0917 17.2085 30.1186 16.9771 30.1509C16.0461 30.2809 15.3173 30.0136 14.6765 29.3069C14.2417 28.8275 13.892 28.574 13.5887 28.5181C13.362 28.4764 13.2398 28.5267 12.9014 28.8012C12.776 28.9029 12.3512 29.1445 11.9573 29.3379C11.5635 29.5314 11.1466 29.7643 11.0309 29.8553C10.9151 29.9464 10.766 30.0496 10.6995 30.0846C10.5509 30.1628 9.25659 30.2556 8.29167 30.2573C7.26703 30.2591 6.78025 30.3287 6.19099 30.5578C5.91245 30.666 5.60322 30.7545 5.50381 30.7545C5.40441 30.7545 5.17419 30.6837 4.99222 30.5973ZM6.82295 27.2568C7.25448 27.0397 7.4296 27.0058 8.39105 26.9533C9.19066 26.9097 9.32579 26.889 9.39493 26.8001C9.43887 26.7436 9.63296 26.4737 9.82623 26.2005C10.3135 25.5116 10.4252 25.4097 11.4433 24.726C12.1899 24.2245 12.3551 24.089 12.4252 23.9207C12.5257 23.679 12.5932 22.0562 12.5149 21.761C12.4874 21.657 12.3996 21.5229 12.3198 21.4631C12.1752 21.3547 12.173 21.3548 11.69 21.4719C11.4234 21.5365 10.9096 21.6775 10.5483 21.7853C9.98551 21.9532 9.76463 21.9889 9.00899 22.0344C7.46832 22.1273 6.99184 22.2322 6.11667 22.6708C5.85773 22.8007 5.37533 23.0227 5.04468 23.1642C4.71403 23.3056 4.38639 23.4748 4.3166 23.5401C4.13656 23.7086 3.88734 24.2632 3.80838 24.6709C3.6041 25.7257 4.09695 26.6058 5.04724 26.8831C5.27913 26.9507 5.64633 27.0916 5.86325 27.196C6.33063 27.4212 6.47779 27.4305 6.82295 27.2568Z" fill="#E81F1F"/>
<path d="M60.3031 30.1427C60.004 30.0542 59.534 29.9545 59.2586 29.9213C58.867 29.874 58.578 29.7894 57.9332 29.533C56.8609 29.1068 56.869 29.1113 56.6723 28.8272C56.5797 28.6933 56.4464 28.5137 56.3761 28.4279L56.2483 28.2721L56.0188 28.3888C55.8925 28.453 55.245 28.8719 54.5798 29.3198L53.3703 30.134L51.8747 30.1999L50.379 30.2657L50.0474 30.1163C49.7639 29.9885 49.6779 29.9733 49.4541 30.0109C49.3101 30.0352 48.982 30.0571 48.725 30.0596C48.3187 30.0636 48.2167 30.0439 47.943 29.909C46.8522 29.3712 45.1819 26.8865 44.4405 24.6987C44.0432 23.5266 44.0445 23.5415 44.0215 19.9348C44.0101 18.1588 43.9735 16.3455 43.9402 15.9052C43.8808 15.1212 43.7395 14.2674 43.617 13.9531C43.5559 13.7963 43.5525 13.7952 43.2116 13.8319C42.7794 13.8784 42.1952 13.7873 41.9239 13.6312C41.2916 13.2674 40.7268 12.6677 40.5673 12.1911C40.4643 11.8833 40.4517 11.1569 40.5364 10.4128C40.6037 9.82125 40.7146 9.62147 41.1804 9.25331C41.8233 8.74506 42.4751 8.65101 43.2826 8.94997C43.7718 9.13108 44.0925 9.16301 44.1413 9.03544C44.1747 8.94807 44.3944 8.86664 44.7417 8.81293C45.7928 8.65034 47.545 9.75306 48.0772 10.9121C48.1881 11.1535 48.2021 11.2666 48.1972 11.8756C48.192 12.5227 48.1785 12.6051 47.9793 13.2004C47.7836 13.7855 47.767 13.8828 47.7678 14.4425C47.7687 15.1282 47.8347 15.3535 48.2306 16.0226C48.5468 16.557 48.5609 16.7031 48.3373 17.131C48.2375 17.3221 48.12 17.5495 48.0761 17.6363C47.9692 17.8477 47.8019 18.5092 47.7582 18.8933C47.7252 19.1833 47.737 19.2295 47.9353 19.5833L48.1478 19.9625L48.1753 22.1757L48.2028 24.3889L48.4194 24.6598C48.9915 25.3751 49.5988 25.9331 49.9814 26.095C50.1193 26.1534 50.4565 26.1898 51.0623 26.2118L51.9427 26.2437L52.3474 25.8086C53.0314 25.0732 54.5042 23.1364 54.9846 22.3404C55.2349 21.9256 55.6347 20.9162 55.7756 20.343L55.8938 19.8624L55.7644 19.3881C55.5853 18.7314 55.5729 18.4929 55.6774 17.724C55.7786 16.9799 55.7757 16.9521 55.507 16.1047C55.3844 15.7181 55.3282 15.4504 55.3493 15.3539C55.3673 15.2713 55.5062 15.064 55.6579 14.8931C55.9871 14.5222 56.0602 14.3194 55.9552 14.0672C55.8428 13.7969 55.7176 13.7136 55.2712 13.6116C55.0471 13.5605 54.6266 13.4194 54.3369 13.2982C53.8369 13.089 53.7878 13.0792 53.3703 13.1047C52.4788 13.1591 51.8207 12.9338 51.2594 12.382C50.7025 11.8345 50.6411 11.5372 50.9575 10.9203C51.295 10.2623 52.5097 8.93178 53.0043 8.67842C53.2847 8.53479 53.4367 8.5348 54.0718 8.67844C54.7973 8.84253 55.1805 8.84294 55.528 8.68003L55.8095 8.5481L56.1841 8.68708C56.6349 8.85429 56.7424 8.8723 57.9164 8.97746C59.0009 9.07458 59.359 9.18448 59.7005 9.52491C59.9512 9.77485 60.0016 9.9203 60.0937 10.6612C60.1258 10.9193 60.1938 11.3416 60.2449 11.5996C60.3591 12.1774 60.375 14.6115 60.2737 16.0046C60.2064 16.9299 60.1221 17.3399 59.8517 18.058C59.7125 18.4275 59.6956 18.5434 59.694 19.1345C59.6927 19.6436 59.7198 19.8991 59.8109 20.2385C59.9129 20.6185 59.9338 20.8839 59.9612 22.1429C59.9805 23.0336 59.9686 23.9327 59.9306 24.442C59.8715 25.234 59.8738 25.2879 59.9753 25.4624C60.1147 25.702 60.4266 25.8183 61.2232 25.9273C62.2117 26.0627 62.8457 26.3261 63.1226 26.7166C63.3926 27.0973 63.4731 28.2339 63.2561 28.6027C63.2051 28.6895 62.9019 28.9334 62.5823 29.1449C62.2627 29.3565 61.7788 29.7057 61.5069 29.921C61.235 30.1364 60.9752 30.3105 60.9296 30.3081C60.8841 30.3056 60.6021 30.2311 60.3031 30.1427Z" fill="#E81F1F"/>
<path d="M64.9951 29.8284C64.2736 29.3028 63.874 28.4468 64.0211 27.7425C64.2051 26.862 64.7587 26.3826 65.5963 26.3788C65.8108 26.3778 66.1679 26.4099 66.3898 26.4501C66.7515 26.5156 66.8228 26.5131 67.0775 26.4263C67.4581 26.2963 67.9371 25.9655 68.0645 25.7446C68.2019 25.5063 68.4314 24.3601 68.4319 23.9093C68.4321 23.712 68.4052 23.3289 68.3722 23.0581C68.3257 22.678 68.3332 22.0613 68.4048 20.3533C68.529 17.3928 68.5026 13.9697 68.3524 13.5654C68.2189 13.206 67.9216 12.9283 67.2837 12.5677C66.4495 12.096 66.5508 12.1108 65.957 12.3732C65.3772 12.6294 65.1308 12.6563 64.7482 12.5052C63.8747 12.1601 63.0454 11.2993 62.7528 10.4339C62.6886 10.2442 62.6806 10.1261 62.7199 9.95053C62.9028 9.13295 63.5287 8.51496 64.46 8.23236C64.8408 8.11683 64.9342 8.1125 66.6315 8.13177C68.3399 8.15115 68.4136 8.15642 68.6366 8.27493C68.9233 8.42736 69.0444 8.42846 69.4548 8.28235C70.1077 8.0499 70.9523 8.14816 71.457 8.51529C71.7258 8.71085 71.8333 8.93122 72.0945 9.82262C72.309 10.5545 72.5 10.9211 72.6922 10.9695C72.9715 11.0398 73.1993 10.898 74.1666 10.0519C74.6838 9.59947 75.0802 9.39157 75.4258 9.39157C75.6625 9.39157 75.7165 9.36307 76.101 9.03498C76.7882 8.44855 77.4763 8.17716 78.2759 8.17716C78.5524 8.17716 78.8046 8.21482 79.0151 8.28756C79.1909 8.34828 79.3936 8.39796 79.4657 8.39796C79.5378 8.39796 79.6937 8.34828 79.8122 8.28756C80.1673 8.10569 80.2903 8.13676 80.6341 8.49509C80.8019 8.66995 81.3011 9.34805 81.7434 10.002L82.5475 11.191L82.5846 11.7127C82.6515 12.6558 82.7285 13.3291 82.8431 13.9732C83.0213 14.9752 82.898 15.4706 82.3469 15.9677C81.9973 16.2831 80.9296 17.0137 80.4632 17.2566L80.1521 17.4188L79.6661 17.1939C79.3988 17.0703 79.0687 16.9233 78.9326 16.8672C78.3525 16.6281 77.6559 15.8992 77.3028 15.1615C77.073 14.6817 77.0632 14.3597 77.2554 13.6021C77.4085 12.9989 77.4218 12.8267 77.331 12.6264C77.2439 12.4345 77.1452 12.412 76.8151 12.5084C76.6073 12.569 76.409 12.6952 76.095 12.9665C75.8567 13.1725 75.4105 13.5447 75.1036 13.7935C74.4677 14.309 74.2827 14.5159 74.0346 14.9898C73.5919 15.8354 73.3881 16.1261 72.8239 16.7174C72.3468 17.2173 72.1889 17.4261 72.0027 17.8033L71.7723 18.2703L71.862 18.8956C71.9717 19.6601 71.9736 20.2139 71.872 21.7841C71.8287 22.452 71.7761 23.446 71.7551 23.993L71.7169 24.9874L72.0676 25.2953C72.5328 25.7036 72.892 25.9566 73.3253 26.1809L73.6826 26.3658H75.3965H77.1103L77.4035 26.6196C78.175 27.2877 78.2208 28.0741 77.5401 28.9683C77.2072 29.4056 76.8258 29.5641 75.7033 29.7317C74.935 29.8464 74.3064 29.8385 73.7587 29.7071C73.3578 29.6109 73.2893 29.6075 73.1643 29.6775C72.6578 29.9609 72.7181 29.9521 71.2638 29.953L69.8894 29.9538L69.5665 29.802C69.1828 29.6217 69.0176 29.615 68.5426 29.7606C68.1047 29.8949 67.5626 29.9021 67.0028 29.7814C66.5978 29.694 66.5759 29.6949 66.122 29.8184C65.3936 30.0164 65.2547 30.0177 64.9951 29.8285V29.8284Z" fill="#E81F1F"/>
<path d="M92.4288 30.2777C91.3655 30.2068 90.9088 30.0314 90.3499 29.4795C89.9008 29.036 89.8102 28.9881 89.4199 28.9881C88.4972 28.9881 87.5328 28.5496 86.5273 27.6727C86.074 27.2774 85.9506 27.0789 85.7833 26.4764C85.5972 25.8056 85.4539 25.4953 84.7874 24.3199C83.7502 22.4908 83.6581 22.2623 83.3638 20.7908C83.0919 19.431 83.0778 19.2232 83.2221 18.6983C83.3301 18.3053 83.3381 18.1861 83.303 17.5043C83.2563 16.5983 83.277 16.5078 83.8271 15.2156C84.0339 14.7298 84.2559 14.1337 84.3203 13.8908C84.614 12.7832 84.9041 12.1186 85.3718 11.4817C85.6842 11.0563 85.8907 10.8851 86.3223 10.6935C86.5881 10.5754 86.6492 10.5194 86.742 10.3088C86.8861 9.98171 87.1293 9.77692 88.4044 8.90895L89.4789 8.17755L89.8268 8.17569C90.5329 8.17192 91.3258 8.07394 91.3926 7.98219C91.4276 7.93422 91.5884 7.8411 91.75 7.77525C92.0222 7.6644 92.1562 7.65414 93.559 7.63673L95.074 7.61792L95.6623 7.92772C95.9858 8.09811 96.5781 8.35687 96.9784 8.50274C98.2597 8.96962 99.2372 9.5159 99.7678 10.0617C99.9643 10.2638 100.316 10.5593 100.55 10.7183C101.062 11.0668 101.169 11.2221 101.683 12.3728C102.251 13.6432 102.47 14.337 102.485 14.9121C102.496 15.3322 102.522 15.4359 102.733 15.9056C103.058 16.6283 103.076 16.8897 102.844 17.534C102.745 17.8073 102.591 18.2415 102.502 18.4988C102.413 18.7563 102.27 19.0668 102.186 19.1889C101.862 19.6558 101.368 20.0288 100.823 20.2169C100.459 20.3428 100.27 20.3458 99.6578 20.2353C99.1395 20.1418 98.8071 20.1607 98.0504 20.3267C97.4432 20.4599 97.1369 20.4588 95.7805 20.3186C95.1767 20.2562 94.3982 20.2012 94.0505 20.1965C93.4656 20.1884 93.3764 20.2018 92.8592 20.3754L92.3001 20.5631L91.7833 20.4611C91.2944 20.3645 91.2373 20.3639 90.7207 20.4489C90.3258 20.514 90.0066 20.5296 89.5666 20.5054C88.9861 20.4734 88.9433 20.4786 88.6238 20.6226C88.4397 20.7056 88.2202 20.8456 88.1361 20.9338L87.9831 21.0941L88.0832 21.6325C88.2953 22.7741 88.5893 23.7818 88.8416 24.2322C89.1582 24.7975 89.4704 25.0233 90.2189 25.2286C90.6796 25.3549 90.8078 25.4216 91.1919 25.7349C91.5469 26.0247 91.7369 26.1089 92.2493 26.204C92.7811 26.3028 93.1338 26.4086 93.5661 26.5992L93.8789 26.737L94.6106 26.538C95.0131 26.4285 95.4908 26.3126 95.6722 26.2806C96.219 26.184 96.3702 26.1167 96.7668 25.7933C97.2314 25.4144 97.7538 24.8253 98.3798 23.9741C99.0084 23.1195 99.3616 22.7103 99.5693 22.5962C99.7096 22.519 99.8932 22.5021 100.592 22.5021C101.578 22.5021 101.745 22.5438 102.068 22.8717C102.723 23.5355 102.633 24.9021 101.83 26.5167C101.528 27.1219 101.272 27.4905 101.022 27.6795C100.922 27.7549 100.592 27.9197 100.29 28.0456C99.9877 28.1715 99.394 28.4695 98.9707 28.7077C97.9732 29.2689 97.119 29.6952 96.4777 29.9517C96.0385 30.1274 95.9225 30.1526 95.6805 30.1255C94.7698 30.0232 94.4017 30.0257 93.8295 30.1381C93.1647 30.2687 92.815 30.3036 92.4288 30.2777ZM95.6267 16.733C96.1053 16.6061 96.5876 16.4793 96.6984 16.4514C96.9546 16.3869 97.3593 15.9806 97.5429 15.6037C97.8318 15.0108 97.7798 13.9901 97.4429 13.6421C97.0488 13.235 95.8746 12.5901 95.273 12.4505C95.0693 12.4032 94.7171 12.2609 94.4903 12.1341C94.094 11.9125 94.0598 11.9038 93.6107 11.9074C93.2668 11.9103 93.0136 11.9511 92.6517 12.0621C91.5599 12.397 90.9641 12.7212 90.6605 13.1456C90.2704 13.6909 90.2666 13.6936 89.7687 13.7804C88.9433 13.9242 88.636 14.1614 88.2425 14.9588C88.0803 15.2872 88.0293 15.4622 88.0129 15.7455C87.966 16.5591 88.3325 16.7326 89.7327 16.5598C90.2009 16.5021 90.2878 16.507 90.7171 16.6151C91.2442 16.7478 91.5199 16.7608 91.9833 16.6748C92.3272 16.611 92.4556 16.6305 93.2809 16.8721C93.9485 17.0676 94.4854 17.0358 95.6267 16.733Z" fill="#E81F1F"/>
</svg>
