<svg width="64" height="14" viewBox="0 0 64 14" fill="none" xmlns="http://www.w3.org/2000/svg">
<path fill-rule="evenodd" clip-rule="evenodd" d="M25.9 10.1826C23.5 11.8189 20.1 12.6371 17.1 12.6371C12.9 12.6371 9.19998 11.2735 6.39998 8.90984C6.19998 8.72802 6.39998 8.45529 6.59998 8.63711C9.69998 10.2735 13.4 11.1826 17.3 11.1826C19.9 11.1826 22.8 10.728 25.5 9.63711C25.9 9.45529 26.2 9.90984 25.9 10.1826Z" fill="#23004E"/>
<path fill-rule="evenodd" clip-rule="evenodd" d="M25.9 10.1826C23.5 11.8189 20.1 12.6371 17.1 12.6371C12.9 12.6371 9.19998 11.2735 6.39998 8.90984C6.19998 8.72802 6.39998 8.45529 6.59998 8.63711C9.69998 10.2735 13.4 11.1826 17.3 11.1826C19.9 11.1826 22.8 10.728 25.5 9.63711C25.9 9.45529 26.2 9.90984 25.9 10.1826Z" fill="#23004E"/>
<path fill-rule="evenodd" clip-rule="evenodd" d="M25.9 9.6372C23.5 11.1827 20.1 12.0008 17.2 12.0008C13.3 12.0008 9.79996 10.7281 7.09996 8.72811C6.99996 8.6372 6.79996 8.6372 6.69996 8.54629C6.39996 8.36447 6.19996 8.6372 6.49996 8.81902C9.29996 11.1827 13.1 12.5463 17.2 12.5463C20.2 12.5463 23.6 11.7281 26 10.0917C26.1 10.0008 26.1 9.72811 25.9 9.6372Z" fill="#23004E"/>
<path fill-rule="evenodd" clip-rule="evenodd" d="M26.8 9.09086C26.5 8.72723 24.8 8.90904 24 8.99995C23.8 8.99995 23.7 8.81814 23.9 8.72723C25.3 7.81814 27.5 8.09086 27.7 8.36359C28 8.63632 27.6 10.7272 26.4 11.6363C26.2 11.8181 26 11.7272 26.1 11.5454C26.5 10.909 27.1 9.4545 26.8 9.09086Z" fill="#23004E"/>
<path fill-rule="evenodd" clip-rule="evenodd" d="M27.9 8.45508C28.2 8.72781 27.8 10.8187 26.6 11.7278C26.4 11.9096 26.2 11.8187 26.3 11.6369C26.6 11.0005 27.2 9.54599 26.9 9.18235" fill="#23004E"/>
<path fill-rule="evenodd" clip-rule="evenodd" d="M24.1 2.63672V1.81854C24.1 1.72763 24.2 1.63672 24.3 1.63672H28.5C28.6 1.63672 28.7 1.72763 28.7 1.81854V2.54581C28.7 2.63672 28.6 2.81854 28.4 3.09126L26.2 5.90945C27 5.90945 27.8 6.00035 28.6 6.36399C28.8 6.4549 28.8 6.54581 28.8 6.72763V7.63672C28.8 7.72763 28.7 7.90945 28.5 7.81854C27.2 7.18217 25.5 7.18217 24.1 7.81854C24 7.90945 23.8 7.72763 23.8 7.63672V6.81854C23.8 6.72763 23.8 6.4549 24 6.27308L26.5 3.00036H24.3C24.2 2.81854 24.1 2.72763 24.1 2.63672Z" fill="#23004E"/>
<path fill-rule="evenodd" clip-rule="evenodd" d="M9 7.90962H7.7C7.6 7.90962 7.5 7.81871 7.5 7.72781V1.81871C7.5 1.72781 7.6 1.6369 7.7 1.6369H8.9C9 1.6369 9.1 1.72781 9.1 1.81871V2.54599C9.4 1.81872 10 1.45508 10.8 1.45508C11.6 1.45508 12.1 1.81872 12.4 2.54599C12.7 1.81872 13.4 1.45508 14.1 1.45508C14.6 1.45508 15.2 1.6369 15.6 2.09144C16 2.54599 15.9 3.27326 15.9 3.90962V7.6369C15.9 7.72781 15.8 7.81872 15.7 7.81872H14.4C14.3 7.81872 14.2 7.72781 14.2 7.6369V4.54599C14.2 4.27326 14.2 3.6369 14.2 3.45508C14.1 3.09144 13.8 2.90962 13.5 2.90962C13.2 2.90962 12.9 3.09144 12.7 3.36417C12.6 3.6369 12.6 4.18235 12.6 4.45508V7.54599C12.6 7.6369 12.5 7.72781 12.4 7.72781H11.1C11 7.72781 10.9 7.6369 10.9 7.54599V4.45508C10.9 3.81872 11 2.81871 10.1 2.81871C9.2 2.81871 9.2 3.72781 9.2 4.45508V7.54599C9.2 7.81871 9.1 7.90962 9 7.90962Z" fill="#23004E"/>
<path fill-rule="evenodd" clip-rule="evenodd" d="M32.3 1.45508C34.2 1.45508 35.2 2.90962 35.2 4.81872C35.2 6.6369 34.1 8.09144 32.3 8.09144C30.5 8.09144 29.5 6.6369 29.5 4.81872C29.5 2.90962 30.5 1.45508 32.3 1.45508ZM32.3 2.6369C31.4 2.6369 31.3 3.81871 31.3 4.54599C31.3 5.27326 31.3 6.81871 32.3 6.81871C33.3 6.81871 33.3 5.54599 33.3 4.81872C33.3 4.36417 33.3 3.72781 33.1 3.27326C33 2.81871 32.7 2.6369 32.3 2.6369Z" fill="#23004E"/>
<path fill-rule="evenodd" clip-rule="evenodd" d="M37.7 7.90953H36.4C36.3 7.90953 36.2 7.81862 36.2 7.72772V1.81863C36.2 1.72772 36.3 1.63681 36.4 1.63681H37.6C37.7 1.63681 37.8 1.72772 37.8 1.81863V2.72772C38.2 1.90953 38.6 1.5459 39.5 1.5459C40.1 1.5459 40.6 1.72772 41 2.27317C41.3 2.72772 41.3 3.5459 41.3 4.09135V7.81863C41.3 7.90954 41.2 8.00044 41.1 8.00044H39.8C39.7 8.00044 39.6 7.90954 39.6 7.81863V4.63681C39.6 4.00044 39.7 3.09135 38.8 3.09135C38.5 3.09135 38.2 3.27317 38.1 3.5459C37.9 3.90954 37.9 4.27317 37.9 4.63681V7.81863C37.9 7.81863 37.8 7.90953 37.7 7.90953Z" fill="#23004E"/>
<path d="M42.8 8.00009C43.1314 8.00009 43.4 7.75591 43.4 7.45463C43.4 7.15336 43.1314 6.90918 42.8 6.90918C42.4686 6.90918 42.2 7.15336 42.2 7.45463C42.2 7.75591 42.4686 8.00009 42.8 8.00009Z" fill="#23004E"/>
<path d="M55.6 7.90962C55.5 7.90962 55.4 7.81871 55.4 7.72781V1.81871C55.4 1.72781 55.5 1.6369 55.6 1.6369H56C56.1 1.6369 56.2 1.72781 56.2 1.81871V2.6369C56.5 2.00053 57.1 1.45508 57.9 1.45508C58.7 1.45508 59.3 2.00053 59.6 2.81871C59.9 2.00053 60.6 1.45508 61.5 1.45508C62.1 1.45508 62.7 1.81871 63 2.36417C63.3 2.90962 63.3 3.54599 63.3 4.18235V7.72781C63.3 7.81871 63.2 7.90962 63.1 7.90962H62.5C62.4 7.90962 62.3 7.81871 62.3 7.72781V4.18235C62.3 3.72781 62.3 3.27326 62.1 2.90962C61.9 2.54599 61.5 2.27326 61.1 2.27326C60.7 2.27326 60.3 2.54599 60 3.00053C59.7 3.54599 59.7 4.00053 59.7 4.54599V7.72781C59.7 7.81871 59.6 7.90962 59.5 7.90962H58.9C58.8 7.90962 58.7 7.81871 58.7 7.72781V3.90962C58.7 3.54599 58.7 3.18235 58.5 2.81871C58.3 2.45508 57.9 2.27326 57.5 2.18235C57.1 2.18235 56.7 2.45508 56.5 2.81871C56.2 3.27326 56.1 3.72781 56.1 4.27326V7.6369C56.1 7.72781 56 7.81872 55.9 7.81872H55.6V7.90962Z" fill="#23004E"/>
<path d="M51.8 8.00062C50 8.00062 49.2 6.36426 49.2 4.63699C49.2 2.90971 50.1 1.36426 52 1.36426C53.8 1.36426 54.6 3.00062 54.6 4.63699C54.6 6.45517 53.7 8.00062 51.8 8.00062ZM51.9 7.18244C52.5 7.18244 53 6.8188 53.2 6.27335C53.4 5.8188 53.5 5.18244 53.5 4.63699C53.5 4.00062 53.4 3.45517 53.1 2.90971C52.8 2.45517 52.4 2.18244 51.8 2.18244C51.2 2.18244 50.7 2.54608 50.5 3.09153C50.3 3.54608 50.2 4.18244 50.2 4.63699C50.2 5.18244 50.3 5.90971 50.5 6.36426C50.9 6.90971 51.4 7.18244 51.9 7.18244Z" fill="#23004E"/>
<path d="M46.1 7.18235C46.9 7.18235 47.3 6.54599 47.5 5.81872C47.5 5.72781 47.6 5.6369 47.7 5.6369H48.2C48.3 5.6369 48.4 5.72781 48.4 5.81872C48.2 7.09144 47.3 8.00053 46.1 8.00053C44.3 8.00053 43.5 6.36417 43.5 4.72781C43.5 3.09144 44.3 1.45508 46.1 1.45508C47.3 1.45508 48.2 2.36417 48.4 3.6369C48.4 3.72781 48.3 3.81871 48.2 3.81871H47.6C47.5 3.81871 47.4 3.72781 47.4 3.6369C47.3 2.90962 46.8 2.36417 46 2.27326C44.8 2.27326 44.4 3.6369 44.4 4.72781C44.6 5.72781 44.9 7.18235 46.1 7.18235Z" fill="#23004E"/>
<path fill-rule="evenodd" clip-rule="evenodd" d="M20.8 5.09153C20.8 5.54608 20.8 5.90971 20.6 6.27335C20.4 6.63699 20.1 6.8188 19.7 6.8188C19.2 6.8188 18.9 6.45517 18.9 6.00062C18.9 5.00062 19.9 4.8188 20.8 4.8188V5.09153ZM22.1 7.90971C22 7.90971 21.9 7.90971 21.8 7.90971C21.4 7.63699 21.3 7.45517 21.1 7.18244C20.4 7.8188 19.9 8.00062 19 8.00062C17.9 8.00062 17.1 7.36426 17.1 6.18244C17.1 5.27335 17.7 4.63699 18.4 4.27335C19.1 4.00062 20 3.90971 20.8 3.90971V3.72789C20.8 3.45517 20.8 3.09153 20.6 2.90971C20.4 2.72789 20.2 2.63699 19.9 2.63699C19.4 2.63699 19 2.8188 18.9 3.36426C18.9 3.45517 18.8 3.54608 18.7 3.54608L17.5 3.36426C17.4 3.36426 17.3 3.27335 17.3 3.09153C17.6 1.7279 18.9 1.36426 20.1 1.36426C20.7 1.36426 21.5 1.54608 22 1.90971C22.6 2.45517 22.6 3.09153 22.6 3.90971V5.7279C22.6 6.27335 22.8 6.54608 23.1 6.8188C23.2 6.90971 23.2 7.09153 23.1 7.09153C22.8 7.27335 22.3 7.63699 22.1 7.90971Z" fill="#23004E"/>
<path fill-rule="evenodd" clip-rule="evenodd" d="M4.2 5.09153C4.2 5.54608 4.2 5.90971 4 6.27335C3.8 6.63699 3.5 6.8188 3.1 6.8188C2.6 6.8188 2.3 6.45517 2.3 6.00062C2.3 5.00062 3.3 4.8188 4.2 4.8188V5.09153ZM5.5 7.90971C5.4 7.90971 5.3 7.90971 5.2 7.90971C4.8 7.63699 4.7 7.45517 4.5 7.18244C3.8 7.8188 3.3 8.00062 2.4 8.00062C1.3 8.00062 0.5 7.36426 0.5 6.18244C0.5 5.27335 1.1 4.63699 1.8 4.27335C2.5 4.00062 3.4 3.90971 4.2 3.90971V3.72789C4.2 3.45517 4.2 3.09153 4 2.90971C3.8 2.72789 3.5 2.63699 3.3 2.63699C2.8 2.63699 2.4 2.8188 2.3 3.36426C2.3 3.45517 2.2 3.54608 2.1 3.54608L0.9 3.36426C0.8 3.36426 0.7 3.27335 0.7 3.09153C1 1.7279 2.3 1.36426 3.5 1.36426C4.1 1.36426 4.9 1.54608 5.4 1.90971C6.1 2.45517 6 3.18244 6 3.90971V5.7279C6 6.27335 6.2 6.54608 6.5 6.8188C6.6 6.90971 6.6 7.09153 6.5 7.09153C6.2 7.27335 5.8 7.63699 5.5 7.90971Z" fill="#23004E"/>
<path fill-rule="evenodd" clip-rule="evenodd" d="M39.6 1.45508C38.7 1.45508 38.2 1.81872 37.9 2.6369V1.72781C37.9 1.6369 37.8 1.54599 37.7 1.54599H36.5C36.4 1.54599 36.3 1.6369 36.3 1.72781V3.54599C38 3.00053 39.5 2.45508 40.8 1.81871C40.4 1.54599 40 1.45508 39.6 1.45508Z" fill="#23004E"/>
<path fill-rule="evenodd" clip-rule="evenodd" d="M32.3 1.45508C30.5 1.45508 29.5 2.90962 29.5 4.72781C29.5 4.90962 29.5 5.00053 29.5 5.18235C30.1 5.09144 30.7 4.90962 31.3 4.81872C31.3 4.72781 31.3 4.6369 31.3 4.54599C31.3 3.81871 31.4 2.6369 32.3 2.6369C32.7 2.6369 33 2.81871 33.1 3.18235C33.2 3.54599 33.3 3.90962 33.3 4.27326C33.9 4.09144 34.5 4.00053 35.1 3.81871C34.8 2.45508 33.9 1.45508 32.3 1.45508Z" fill="#23004E"/>
<path fill-rule="evenodd" clip-rule="evenodd" d="M28.5 1.5459H24.3C24.2 1.5459 24.1 1.63681 24.1 1.72772V2.5459C24.1 2.63681 24.2 2.72772 24.3 2.72772H26.5L24.2 5.81863C25 5.72772 25.7 5.63681 26.4 5.5459L28.4 2.90953C28.6 2.63681 28.7 2.45499 28.7 2.36408V1.63681C28.8 1.63681 28.6 1.5459 28.5 1.5459Z" fill="#23004E"/>
<path fill-rule="evenodd" clip-rule="evenodd" d="M22 2.00053C21.5 1.54599 20.7 1.45508 20.1 1.45508C18.9 1.45508 17.6 1.81871 17.3 3.18235C17.3 3.36417 17.4 3.36417 17.5 3.45508L18.7 3.54599C18.8 3.54599 18.9 3.45508 18.9 3.36417C19 2.90962 19.4 2.6369 19.9 2.6369C20.2 2.6369 20.5 2.72781 20.6 2.90962C20.8 3.18235 20.8 3.45508 20.8 3.72781V3.90962C20.1 4.00053 19.1 4.00053 18.4 4.27326C17.6 4.54599 17.1 5.18235 17.1 6.18235C17.4 6.18235 17.7 6.18235 17.9 6.18235C18.2 6.18235 18.6 6.18235 18.9 6.18235C18.9 6.09144 18.9 6.09144 18.9 6.00053C18.9 5.00053 19.9 4.81872 20.8 4.81872V5.09144C20.8 5.45508 20.8 5.81872 20.6 6.18235C21.3 6.18235 21.9 6.09144 22.6 6.09144C22.6 6.00053 22.6 5.90962 22.6 5.81872V4.00053C22.6 3.18235 22.6 2.45508 22 2.00053Z" fill="#23004E"/>
<path fill-rule="evenodd" clip-rule="evenodd" d="M14.2 1.45508C13.5 1.45508 12.8 1.81872 12.5 2.54599C12.1 1.81872 11.6 1.45508 10.9 1.45508C10.1 1.45508 9.5 1.81872 9.2 2.54599V1.81871C9.1 1.6369 9 1.54599 8.9 1.54599H7.7C7.6 1.54599 7.5 1.6369 7.5 1.72781V5.27326C8.1 5.36417 8.6 5.45508 9.2 5.54599V4.45508C9.2 3.72781 9.2 2.81871 10.1 2.81871C11 2.81871 10.9 3.81872 10.9 4.45508V5.72781C11.5 5.81872 12.1 5.81871 12.6 5.90962V4.45508C12.6 4.09144 12.6 3.6369 12.7 3.36417C12.8 3.09144 13.1 2.90962 13.5 2.90962C13.9 2.90962 14.2 3.00053 14.2 3.45508C14.3 3.72781 14.2 4.27326 14.2 4.54599V6.09144C14.8 6.09144 15.4 6.18235 15.9 6.18235V4.00053C15.9 3.36417 16 2.6369 15.6 2.18235C15.3 1.6369 14.7 1.45508 14.2 1.45508Z" fill="#23004E"/>
<path fill-rule="evenodd" clip-rule="evenodd" d="M3.50001 1.36426C2.30001 1.36426 1.00001 1.7279 0.700012 3.09153C0.700012 3.27335 0.800012 3.27335 0.900012 3.36426L2.10001 3.45517C2.20001 3.45517 2.30001 3.36426 2.30001 3.27335C2.40001 2.8188 2.80001 2.54608 3.30001 2.54608C3.60001 2.54608 3.90001 2.63699 4.00001 2.8188C4.20001 3.09153 4.20001 3.36426 4.20001 3.63699V3.8188C3.60001 4.00062 2.70001 4.00062 2.00001 4.27335C3.30001 4.63699 4.60001 4.90971 6.00001 5.18244V4.00062C6.00001 3.27335 6.10001 2.54608 5.40001 2.00062C5.00001 1.54608 4.20001 1.36426 3.50001 1.36426Z" fill="#23004E"/>
</svg>
