<svg width="40" height="16" viewBox="0 0 40 16" fill="none" xmlns="http://www.w3.org/2000/svg">
<path d="M7.4577 2.52273C6.99441 3.02245 6.25337 3.41554 5.51216 3.35936C5.41961 2.68554 5.78398 1.96691 6.21015 1.52891C6.67335 1.018 7.48245 0.653 8.1433 0.625C8.2174 1.32118 7.91472 2.01182 7.4577 2.52273ZM8.1309 3.48836C7.05629 3.43227 6.13607 4.04427 5.62955 4.04427C5.11075 4.04427 4.3325 3.51645 3.48026 3.53327C2.37476 3.55018 1.34952 4.11727 0.787489 5.02118C-0.373611 6.83482 0.484819 9.513 1.60888 10.9897C2.15854 11.7196 2.81321 12.5227 3.678 12.4945C4.49947 12.4664 4.82054 12.0115 5.80873 12.0115C6.80311 12.0115 7.0935 12.4945 7.95811 12.4831C8.8536 12.4663 9.4156 11.7533 9.9654 11.0234C10.5891 10.1923 10.8485 9.38955 10.8609 9.34464C10.8424 9.32755 9.1315 8.73255 9.113 6.93582C9.0946 5.43109 10.4656 4.718 10.5274 4.67309C9.7552 3.62873 8.5509 3.51645 8.1309 3.48836ZM14.3318 1.45582V12.3991H16.2033V8.65964H18.7911C21.1566 8.65964 22.8118 7.183 22.8118 5.04936C22.8118 2.91573 21.1813 1.45582 18.853 1.45582H14.3318ZM16.2033 2.88764H18.3588C19.9832 2.88764 20.9097 3.67373 20.9097 5.055C20.9097 6.43618 19.9833 7.23354 18.3527 7.23354H16.2034V2.88764H16.2033ZM26.2212 12.4832C27.3947 12.4832 28.4816 11.9444 28.9758 11.0852H29.0129V12.3991H30.7422V6.95264C30.7422 5.37491 29.3525 4.35309 27.2156 4.35309C25.2329 4.35309 23.763 5.38618 23.7074 6.80109H25.3935C25.5355 6.12727 26.2212 5.68373 27.1601 5.68373C28.3026 5.68373 28.9449 6.16655 28.9449 7.05936V7.66573L26.6102 7.79482C24.4425 7.91273 23.269 8.72118 23.269 10.125C23.2751 11.5401 24.4856 12.4832 26.2212 12.4832ZM26.7276 11.1864C25.7332 11.1864 25.097 10.7485 25.097 10.0857C25.097 9.39509 25.7085 8.99655 26.8757 8.93464L28.9509 8.81673V9.43445C28.951 10.4564 27.9938 11.1864 26.7276 11.1864ZM33.0582 15.3748C34.8801 15.3748 35.7386 14.7405 36.4859 12.8257L39.7656 4.45973H37.8632L35.6646 10.9224H35.6276L33.4286 4.45973H31.477L34.6393 12.4271L34.4663 12.91C34.1821 13.7296 33.719 14.0498 32.8913 14.0498C32.7432 14.0498 32.4591 14.033 32.3417 14.0216V15.3356C32.4529 15.3581 32.9162 15.3748 33.0582 15.3748Z" fill="#23004E"/>
</svg>
