<svg width="36" height="25" viewBox="0 0 36 25" fill="none" xmlns="http://www.w3.org/2000/svg">
<g clip-path="url(#clip0_15_202)">
<path d="M33.0773 15.6587L31.971 17.2757L30.893 18.8359L30.2689 19.7437L29.9852 20.1692C29.9121 20.2703 29.8189 20.3552 29.7116 20.4186C29.6042 20.4821 29.4849 20.5227 29.3611 20.538C29.1514 20.5302 28.9509 20.45 28.7937 20.3111L28.1129 19.7437L25.9002 17.8998C25.8452 17.8493 25.8012 17.7879 25.7712 17.7196C25.7411 17.6512 25.7256 17.5773 25.7256 17.5026C25.7256 17.428 25.7411 17.3541 25.7712 17.2857C25.8012 17.2174 25.8452 17.156 25.9002 17.1055C25.9503 17.0549 26.0099 17.0147 26.0757 16.9873C26.1414 16.9599 26.2119 16.9458 26.2832 16.9458C26.3544 16.9458 26.4249 16.9599 26.4906 16.9873C26.5564 17.0147 26.616 17.0549 26.6661 17.1055L29.2476 19.3749L30.9213 16.9353L31.9993 15.375L32.1979 15.063C32.248 15.0124 32.3077 14.9722 32.3734 14.9448C32.4391 14.9174 32.5097 14.9033 32.5809 14.9033C32.6521 14.9033 32.7226 14.9174 32.7883 14.9448C32.8541 14.9722 32.9137 15.0124 32.9638 15.063C33.0372 15.1414 33.0868 15.239 33.1069 15.3444C33.1269 15.4499 33.1167 15.5589 33.0773 15.6587Z" fill="white"/>
<path d="M30.5244 0H1.41869C1.23001 0 1.04322 0.0376005 0.869263 0.1106C0.695293 0.1837 0.537653 0.2907 0.405563 0.4254C0.273473 0.5602 0.169593 0.7199 0.100003 0.8953C0.0304132 1.0706 -0.00348678 1.2581 0.000283224 1.4468V19.3754C0.000283224 19.7516 0.149723 20.1124 0.415733 20.3784C0.681733 20.6444 1.04251 20.7938 1.41869 20.7938H23.8862C23.6854 20.4638 23.5236 20.1116 23.404 19.7442H1.41869C1.3715 19.7444 1.32478 19.7347 1.28152 19.7159C1.23825 19.697 1.19938 19.6694 1.16737 19.6347C1.13535 19.6 1.1109 19.5591 1.09557 19.5144C1.08023 19.4698 1.07434 19.4225 1.07827 19.3754V8.1984H30.8932V11.3472C31.2637 11.4079 31.6256 11.5127 31.9712 11.6593V1.4468C31.9712 1.0631 31.8187 0.6951 31.5474 0.4238C31.2761 0.1524 30.9081 0 30.5244 0ZM30.8932 4.9928H1.07827V1.4468C1.07434 1.3997 1.08023 1.3524 1.09557 1.3078C1.1109 1.2631 1.13535 1.2222 1.16737 1.1875C1.19938 1.1528 1.23825 1.1252 1.28152 1.1063C1.32478 1.0875 1.3715 1.0778 1.41869 1.078H30.5244C30.5728 1.078 30.6208 1.0875 30.6655 1.1061C30.7103 1.1246 30.7509 1.1518 30.7852 1.186C30.8194 1.2202 30.8466 1.2609 30.8651 1.3056C30.8836 1.3504 30.8932 1.3983 30.8932 1.4468V4.9928Z" fill="#200340"/>
<path d="M13.0501 13.1063H4.08577C3.95787 13.1063 3.83521 13.0555 3.74477 12.9651C3.65432 12.8746 3.60352 12.752 3.60352 12.6241C3.60352 12.4962 3.65432 12.3735 3.74477 12.283C3.83521 12.1926 3.95787 12.1418 4.08577 12.1418H13.0501C13.178 12.1418 13.3007 12.1926 13.3911 12.283C13.4815 12.3735 13.5324 12.4962 13.5324 12.6241C13.5324 12.752 13.4815 12.8746 13.3911 12.9651C13.3007 13.0555 13.178 13.1063 13.0501 13.1063Z" fill="#200340"/>
<path d="M10.6388 15.687H4.08577C4.02244 15.687 3.95973 15.6745 3.90122 15.6503C3.84271 15.626 3.78955 15.5905 3.74477 15.5457C3.69998 15.5009 3.66446 15.4478 3.64023 15.3893C3.61599 15.3307 3.60352 15.268 3.60352 15.2047C3.60352 15.1414 3.61599 15.0787 3.64023 15.0202C3.66446 14.9616 3.69998 14.9085 3.74477 14.8637C3.78955 14.8189 3.84271 14.7834 3.90122 14.7592C3.95973 14.7349 4.02244 14.7224 4.08577 14.7224H10.6388C10.7667 14.7224 10.8894 14.7733 10.9798 14.8637C11.0703 14.9541 11.1211 15.0768 11.1211 15.2047C11.1211 15.3326 11.0703 15.4553 10.9798 15.5457C10.8894 15.6362 10.7667 15.687 10.6388 15.687Z" fill="#200340"/>
<path d="M31.9711 11.6591C31.6255 11.5124 31.2636 11.4077 30.8931 11.347C30.4466 11.2449 29.9894 11.1973 29.5314 11.2052C27.816 11.2052 26.1709 11.8866 24.9579 13.0996C23.7449 14.3126 23.0635 15.9577 23.0635 17.6731C23.0614 18.3775 23.1765 19.0773 23.4039 19.744C23.5235 20.1113 23.6854 20.4636 23.8862 20.7936C24.5833 22.0403 25.6734 23.0212 26.9865 23.5832C28.2997 24.1452 29.7619 24.2568 31.1451 23.9004C32.5283 23.5441 33.7546 22.74 34.6327 21.6134C35.5109 20.4869 35.9914 19.1014 35.9994 17.6731C36.0003 16.3841 35.6178 15.124 34.9005 14.053C34.1831 12.9821 33.1634 12.1488 31.9711 11.6591ZM33.0775 15.659L31.9711 17.2759L30.8931 18.8362L30.269 19.744L29.9853 20.1695C29.9122 20.2705 29.8191 20.3554 29.7117 20.4189C29.6043 20.4823 29.485 20.523 29.3612 20.5383C29.1516 20.5305 28.9511 20.4503 28.7939 20.3113L28.113 19.744L25.9003 17.9C25.8453 17.8496 25.8014 17.7882 25.7713 17.7198C25.7412 17.6514 25.7257 17.5776 25.7257 17.5029C25.7257 17.4282 25.7412 17.3543 25.7713 17.286C25.8014 17.2176 25.8453 17.1562 25.9003 17.1057C25.9504 17.0551 26.0101 17.015 26.0758 16.9875C26.1415 16.9601 26.2121 16.946 26.2833 16.946C26.3545 16.946 26.425 16.9601 26.4908 16.9875C26.5565 17.015 26.6161 17.0551 26.6663 17.1057L29.2478 19.3752L30.9215 16.9355L31.9995 15.3753L32.198 15.0632C32.2482 15.0126 32.3078 14.9725 32.3735 14.945C32.4393 14.9176 32.5098 14.9035 32.581 14.9035C32.6522 14.9035 32.7227 14.9176 32.7885 14.945C32.8542 14.9725 32.9139 15.0126 32.964 15.0632C33.0373 15.1416 33.0869 15.2392 33.107 15.3447C33.1271 15.4501 33.1168 15.5591 33.0775 15.659Z" fill="#200340"/>
</g>
<defs>
<clipPath id="clip0_15_202">
<rect width="36" height="25" fill="white"/>
</clipPath>
</defs>
</svg>
