<svg width="34" height="34" viewBox="0 0 34 34" fill="none" xmlns="http://www.w3.org/2000/svg">
<g clip-path="url(#clip0_15_195)">
<path fill-rule="evenodd" clip-rule="evenodd" d="M13.7192 17.7476C13.0842 17.1852 12.2539 16.8945 11.4069 16.9378C10.2719 16.9261 9.1783 17.3641 8.3651 18.1562L8.364 18.1572C8.3176 18.2035 8.2807 18.2585 8.2555 18.3191C8.2304 18.3797 8.2174 18.4447 8.2174 18.5103C8.2174 18.5759 8.2304 18.6409 8.2555 18.7015C8.2807 18.7621 8.3175 18.8172 8.364 18.8635L8.3675 18.8667C8.4711 18.9625 8.6069 19.0156 8.748 19.0156C8.8891 19.0156 9.0249 18.9625 9.1286 18.8668L9.1307 18.8647C9.7421 18.2723 10.5588 17.9392 11.4101 17.9349H11.4172L11.4244 17.9341C11.7127 17.8994 12.0051 17.9263 12.2823 18.013C12.5595 18.0996 12.8151 18.2441 13.0324 18.4368C13.2497 18.6295 13.4236 18.8661 13.5427 19.131C13.6618 19.3958 13.7234 19.6829 13.7234 19.9734C13.7234 20.2638 13.6618 20.5509 13.5427 20.8158C13.4236 21.0806 13.2497 21.3172 13.0324 21.5099C12.8151 21.7026 12.5595 21.8471 12.2823 21.9338C12.0051 22.0204 11.7127 22.0473 11.4244 22.0127L11.4169 22.0118H10.7561C10.6224 22.0114 10.4935 22.0615 10.3953 22.1522C10.2971 22.2429 10.2364 22.3674 10.2261 22.5007V22.5103C10.2261 22.6508 10.2819 22.7855 10.3812 22.8848C10.4806 22.9842 10.6153 23.04 10.7558 23.04H11.3884L11.3983 23.0384C11.7275 22.9851 12.0644 23.004 12.3856 23.0938C12.7069 23.1836 13.0048 23.342 13.2587 23.5582C13.5127 23.7744 13.7167 24.0432 13.8565 24.346C13.9964 24.6488 14.0689 24.9783 14.0689 25.3118C14.0689 25.6454 13.9964 25.9749 13.8565 26.2777C13.7167 26.5805 13.5127 26.8493 13.2587 27.0655C13.0048 27.2817 12.7069 27.4401 12.3856 27.5299C12.0644 27.6196 11.7275 27.6385 11.3983 27.5853L11.3881 27.5837H11.3778C10.8913 27.5856 10.4092 27.4907 9.9596 27.3047C9.51 27.1186 9.1018 26.8451 8.7588 26.5L8.7567 26.4979C8.6581 26.4033 8.5267 26.3504 8.39 26.3504C8.2533 26.3504 8.1219 26.4033 8.0233 26.4979L8.0216 26.4995C7.9752 26.5459 7.9383 26.6009 7.9131 26.6615C7.888 26.7221 7.875 26.7871 7.875 26.8527C7.875 26.9183 7.888 26.9833 7.9131 27.0439C7.9379 27.1036 7.9741 27.1579 8.0197 27.2039C8.4506 27.6701 8.9757 28.0396 9.5601 28.2877C10.1436 28.5354 10.7729 28.6565 11.4066 28.6431C12.334 28.7046 13.2491 28.4031 13.9583 27.8021C14.6689 27.1999 15.1168 26.3444 15.207 25.4173L15.2078 25.4089L15.2075 25.4004C15.1807 24.704 14.9299 24.0348 14.4924 23.4923C14.1349 23.049 13.6683 22.7096 13.1413 22.5055C13.5775 22.3188 13.9599 22.0211 14.2487 21.6391C14.6147 21.1551 14.8098 20.5632 14.8031 19.9564L14.8026 19.9492C14.7443 19.1016 14.3552 18.3109 13.7192 17.7476ZM11.4069 16.9378L11.4029 16.938L11.4095 17.0629L11.4109 16.9379L11.4069 16.9378Z" fill="#200340"/>
<path fill-rule="evenodd" clip-rule="evenodd" d="M21.8527 16.9375C19.6141 16.9375 17.4009 19.1652 17.4009 22.8212C17.4009 26.4762 19.6133 28.736 21.8527 28.736C24.1241 28.736 26.3045 26.444 26.3045 22.8212C26.3045 19.1968 24.0917 16.9375 21.8527 16.9375ZM18.4602 22.8212C18.4602 19.6849 20.1742 17.9968 21.8527 17.9968C23.5328 17.9968 25.2763 19.6558 25.2763 22.8212C25.2763 25.9877 23.5319 27.6767 21.8527 27.6767C20.2057 27.6767 18.4602 25.958 18.4602 22.8212Z" fill="#200340"/>
<path fill-rule="evenodd" clip-rule="evenodd" d="M7.8792 4.67352V2.10353V1.68566C7.8791 1.57614 7.9012 1.46774 7.9441 1.36701C7.9871 1.26628 8.0501 1.17531 8.1292 1.09961C8.2084 1.02391 8.302 0.965052 8.4046 0.926582C8.5062 0.888452 8.6145 0.871162 8.723 0.875712C8.9367 0.876462 9.1415 0.961702 9.2927 1.1129C9.4446 1.26477 9.5299 1.47077 9.5299 1.68555L9.5295 4.67352H24.5634L24.5635 1.68534C24.5635 1.47056 24.6489 1.26458 24.8007 1.11271C24.9526 0.960842 25.1586 0.875522 25.3734 0.875522C25.5881 0.875522 25.7941 0.960842 25.946 1.11271C26.0979 1.26458 26.1832 1.47056 26.1832 1.68534L26.1831 4.67352H31.2242C31.4692 4.66926 31.7126 4.71322 31.9406 4.8029C32.1689 4.89273 32.3774 5.02666 32.5539 5.19704C32.7305 5.36743 32.8718 5.57094 32.9697 5.79593C33.0676 6.02093 33.1203 6.26302 33.1246 6.50836L33.1247 6.51058L33.1246 31.8789C33.129 32.1295 33.0829 32.3784 32.9891 32.6108C32.8951 32.8435 32.7552 33.055 32.5777 33.2324C32.4003 33.4099 32.1888 33.5498 31.9561 33.6438C31.7237 33.7376 31.4748 33.7837 31.2242 33.7793H2.7742C2.52604 33.7794 2.28035 33.73 2.05149 33.634C1.82263 33.5381 1.61519 33.3974 1.44127 33.2204C1.26735 33.0434 1.13044 32.8335 1.03854 32.603C0.94679 32.3728 0.90173 32.1267 0.90601 31.8789V13.452H0.875V12.237H0.90601V6.57393C0.90173 6.32619 0.94679 6.08006 1.03854 5.84989C1.13044 5.61937 1.26735 5.40947 1.44127 5.23244C1.61519 5.05542 1.82263 4.91482 2.05149 4.81885C2.28035 4.72289 2.52605 4.67349 2.7742 4.67352H7.8792ZM8.1287 5V9.032C8.1286 9.1077 8.1439 9.1827 8.1736 9.2524C8.2033 9.322 8.2469 9.3849 8.3016 9.4372C8.3563 9.4895 8.421 9.5302 8.4919 9.5568C8.5628 9.5834 8.6384 9.5953 8.714 9.5919L8.7197 9.5916C8.8681 9.5916 9.0105 9.5328 9.1155 9.4278C9.2205 9.3228 9.2795 9.1804 9.2795 9.032V5H8.1287ZM25.9331 4.92352V9.032C25.9331 9.1804 25.8741 9.3228 25.7691 9.4278C25.6641 9.5328 25.5217 9.5918 25.3732 9.5918C25.2248 9.5918 25.0824 9.5328 24.9774 9.4278C24.8724 9.3228 24.8134 9.1804 24.8134 9.032V4.92352H25.9331ZM2.08985 13.4215V31.88C2.08985 32.0615 2.16195 32.2356 2.29029 32.3639C2.41863 32.4923 2.59269 32.5644 2.77418 32.5644H31.2304C31.3206 32.5681 31.4106 32.5531 31.4947 32.5203C31.5788 32.4874 31.6552 32.4375 31.719 32.3737C31.7828 32.3099 31.8327 32.2335 31.8656 32.1494C31.8984 32.0653 31.9135 31.9753 31.9098 31.8851L31.9096 31.88L31.9097 13.4215H2.08985Z" fill="#200340"/>
</g>
<defs>
<clipPath id="clip0_15_195">
<rect width="34" height="34" fill="white"/>
</clipPath>
</defs>
</svg>
