<svg width="94" height="16" viewBox="0 0 94 16" fill="none" xmlns="http://www.w3.org/2000/svg">
<g clip-path="url(#clip0_2_199)">
<path d="M15.9159 5.76003C15.8646 5.61673 15.7718 5.49199 15.6492 5.4018C15.5266 5.31161 15.3799 5.26007 15.2279 5.25379H10.305L8.74212 0.508187C8.68637 0.352247 8.58159 0.218571 8.44348 0.127189C8.30537 0.0358075 8.14136 -0.00835941 7.97604 0.00130649C7.81416 -0.000545082 7.65586 0.0490215 7.52394 0.14287C7.39203 0.236718 7.29329 0.370007 7.24196 0.523547L5.67908 5.26915H0.771558C0.612 5.26734 0.455871 5.31548 0.32504 5.40683C0.194208 5.49818 0.0952265 5.62817 0.0419581 5.77859C-0.00990661 5.92842 -0.0126119 6.0909 0.0342359 6.24237C0.0810837 6.39385 0.175041 6.52643 0.302438 6.62083L4.28836 9.58467L2.72484 14.3616C2.61476 14.6752 2.72612 15.0227 3.00004 15.2173C3.13382 15.3121 3.29418 15.3621 3.45813 15.3602C3.62208 15.3582 3.7812 15.3044 3.91268 15.2064L8.08548 12.1344L12.2743 15.2064C12.3558 15.2673 12.4486 15.3115 12.5472 15.3364C12.6458 15.3614 12.7484 15.3667 12.8491 15.3521C12.9498 15.3374 13.0466 15.303 13.134 15.2509C13.2214 15.1988 13.2977 15.1299 13.3584 15.0483C13.505 14.8499 13.544 14.5933 13.4621 14.3616L11.8992 9.58467L15.8064 6.60547C15.9091 6.49284 15.9746 6.35136 15.994 6.20022C16.0135 6.04909 15.986 5.89562 15.9152 5.76067L15.9159 5.76003Z" fill="#22004D"/>
</g>
<g clip-path="url(#clip1_2_199)">
<path d="M35.9159 5.76003C35.8646 5.61673 35.7718 5.49199 35.6492 5.4018C35.5266 5.31161 35.3799 5.26007 35.2279 5.25379H30.305L28.7421 0.508187C28.6864 0.352247 28.5816 0.218571 28.4435 0.127189C28.3054 0.0358075 28.1414 -0.00835941 27.976 0.00130649C27.8142 -0.000545082 27.6559 0.0490215 27.5239 0.14287C27.392 0.236718 27.2933 0.370007 27.242 0.523547L25.6791 5.26915H20.7716C20.612 5.26734 20.4559 5.31548 20.325 5.40683C20.1942 5.49818 20.0952 5.62817 20.042 5.77859C19.9901 5.92842 19.9874 6.0909 20.0342 6.24237C20.0811 6.39385 20.175 6.52643 20.3024 6.62083L24.2884 9.58467L22.7248 14.3616C22.6148 14.6752 22.7261 15.0227 23 15.2173C23.1338 15.3121 23.2942 15.3621 23.4581 15.3602C23.6221 15.3582 23.7812 15.3044 23.9127 15.2064L28.0855 12.1344L32.2743 15.2064C32.3558 15.2673 32.4486 15.3115 32.5472 15.3364C32.6458 15.3614 32.7484 15.3667 32.8491 15.3521C32.9498 15.3374 33.0466 15.303 33.134 15.2509C33.2214 15.1988 33.2977 15.1299 33.3584 15.0483C33.505 14.8499 33.544 14.5933 33.4621 14.3616L31.8992 9.58467L35.8064 6.60547C35.9091 6.49284 35.9746 6.35136 35.994 6.20022C36.0135 6.04909 35.986 5.89562 35.9152 5.76067L35.9159 5.76003Z" fill="#22004D"/>
</g>
<g clip-path="url(#clip2_2_199)">
<path d="M55.9159 5.76003C55.8646 5.61673 55.7718 5.49199 55.6492 5.4018C55.5266 5.31161 55.3799 5.26007 55.2279 5.25379H50.305L48.7421 0.508187C48.6864 0.352247 48.5816 0.218571 48.4435 0.127189C48.3054 0.0358075 48.1414 -0.00835941 47.976 0.00130649C47.8142 -0.000545082 47.6559 0.0490215 47.5239 0.14287C47.392 0.236718 47.2933 0.370007 47.242 0.523547L45.6791 5.26915H40.7716C40.612 5.26734 40.4559 5.31548 40.325 5.40683C40.1942 5.49818 40.0952 5.62817 40.042 5.77859C39.9901 5.92842 39.9874 6.0909 40.0342 6.24237C40.0811 6.39385 40.175 6.52643 40.3024 6.62083L44.2884 9.58467L42.7248 14.3616C42.6148 14.6752 42.7261 15.0227 43 15.2173C43.1338 15.3121 43.2942 15.3621 43.4581 15.3602C43.6221 15.3582 43.7812 15.3044 43.9127 15.2064L48.0855 12.1344L52.2743 15.2064C52.3558 15.2673 52.4486 15.3115 52.5472 15.3364C52.6458 15.3614 52.7484 15.3667 52.8491 15.3521C52.9498 15.3374 53.0466 15.303 53.134 15.2509C53.2214 15.1988 53.2977 15.1299 53.3584 15.0483C53.505 14.8499 53.544 14.5933 53.4621 14.3616L51.8992 9.58467L55.8064 6.60547C55.9091 6.49284 55.9746 6.35136 55.994 6.20022C56.0135 6.04909 55.986 5.89562 55.9152 5.76067L55.9159 5.76003Z" fill="#22004D"/>
</g>
<g clip-path="url(#clip3_2_199)">
<path d="M74.9159 5.76003C74.8646 5.61673 74.7718 5.49199 74.6492 5.4018C74.5266 5.31161 74.3799 5.26007 74.2279 5.25379H69.305L67.7421 0.508187C67.6864 0.352247 67.5816 0.218571 67.4435 0.127189C67.3054 0.0358075 67.1414 -0.00835941 66.976 0.00130649C66.8142 -0.000545082 66.6559 0.0490215 66.5239 0.14287C66.392 0.236718 66.2933 0.370007 66.242 0.523547L64.6791 5.26915H59.7716C59.612 5.26734 59.4559 5.31548 59.325 5.40683C59.1942 5.49818 59.0952 5.62817 59.042 5.77859C58.9901 5.92842 58.9874 6.0909 59.0342 6.24237C59.0811 6.39385 59.175 6.52643 59.3024 6.62083L63.2884 9.58467L61.7248 14.3616C61.6148 14.6752 61.7261 15.0227 62 15.2173C62.1338 15.3121 62.2942 15.3621 62.4581 15.3602C62.6221 15.3582 62.7812 15.3044 62.9127 15.2064L67.0855 12.1344L71.2743 15.2064C71.3558 15.2673 71.4486 15.3115 71.5472 15.3364C71.6458 15.3614 71.7484 15.3667 71.8491 15.3521C71.9498 15.3374 72.0466 15.303 72.134 15.2509C72.2214 15.1988 72.2977 15.1299 72.3584 15.0483C72.505 14.8499 72.544 14.5933 72.4621 14.3616L70.8992 9.58467L74.8064 6.60547C74.9091 6.49284 74.9746 6.35136 74.994 6.20022C75.0135 6.04909 74.986 5.89562 74.9152 5.76067L74.9159 5.76003Z" fill="#22004D"/>
</g>
<g clip-path="url(#clip4_2_199)">
<path d="M93.9159 5.76003C93.8646 5.61673 93.7718 5.49199 93.6492 5.4018C93.5266 5.31161 93.3799 5.26007 93.2279 5.25379H88.305L86.7421 0.508187C86.6864 0.352247 86.5816 0.218571 86.4435 0.127189C86.3054 0.0358075 86.1414 -0.00835941 85.976 0.00130649C85.8142 -0.000545082 85.6559 0.0490215 85.5239 0.14287C85.392 0.236718 85.2933 0.370007 85.242 0.523547L83.6791 5.26915H78.7716C78.612 5.26734 78.4559 5.31548 78.325 5.40683C78.1942 5.49818 78.0952 5.62817 78.042 5.77859C77.9901 5.92842 77.9874 6.0909 78.0342 6.24237C78.0811 6.39385 78.175 6.52643 78.3024 6.62083L82.2884 9.58467L80.7248 14.3616C80.6148 14.6752 80.7261 15.0227 81 15.2173C81.1338 15.3121 81.2942 15.3621 81.4581 15.3602C81.6221 15.3582 81.7812 15.3044 81.9127 15.2064L86.0855 12.1344L90.2743 15.2064C90.3558 15.2673 90.4486 15.3115 90.5472 15.3364C90.6458 15.3614 90.7484 15.3667 90.8491 15.3521C90.9498 15.3374 91.0466 15.303 91.134 15.2509C91.2214 15.1988 91.2977 15.1299 91.3584 15.0483C91.505 14.8499 91.544 14.5933 91.4621 14.3616L89.8992 9.58467L93.8064 6.60547C93.9091 6.49284 93.9746 6.35136 93.994 6.20022C94.0135 6.04909 93.986 5.89562 93.9152 5.76067L93.9159 5.76003Z" fill="#22004D"/>
</g>
<defs>
<clipPath id="clip0_2_199">
<rect width="16" height="16" fill="white"/>
</clipPath>
<clipPath id="clip1_2_199">
<rect width="16" height="16" fill="white" transform="translate(20)"/>
</clipPath>
<clipPath id="clip2_2_199">
<rect width="16" height="16" fill="white" transform="translate(40)"/>
</clipPath>
<clipPath id="clip3_2_199">
<rect width="16" height="16" fill="white" transform="translate(59)"/>
</clipPath>
<clipPath id="clip4_2_199">
<rect width="16" height="16" fill="white" transform="translate(78)"/>
</clipPath>
</defs>
</svg>
