<svg width="36" height="20" viewBox="0 0 36 20" fill="none" xmlns="http://www.w3.org/2000/svg">
<g clip-path="url(#clip0_2_100)">
<path d="M35.7187 9.99973C35.7187 15.3179 30.9937 19.6646 25.0875 19.6646C19.2375 19.6646 14.4562 15.3179 14.4562 9.99973C14.4562 4.68155 19.1812 0.334961 25.0312 0.334961C30.9937 0.334961 35.7187 4.68155 35.7187 9.99973Z" fill="#23004E"/>
<path d="M25.0875 0.334961C30.9375 0.334961 35.7187 4.68155 35.7187 9.99973C35.7187 15.3179 30.9937 19.6646 25.0875 19.6646C19.2375 19.6646 14.4562 15.3179 14.4562 9.99973" fill="#23004E"/>
<path d="M25.0875 0.334961C30.9375 0.334961 35.7187 4.68155 35.7187 9.99973C35.7187 15.3179 30.9937 19.6646 25.0875 19.6646" fill="#23004E"/>
<path d="M10.8 0.334961C5.00625 0.386097 0.28125 4.68155 0.28125 9.99973C0.28125 15.3179 5.00625 19.6646 10.9125 19.6646C13.6687 19.6646 16.1437 18.6929 18.0562 17.1588C18.45 16.852 18.7875 16.4941 19.125 16.1361H16.9313C16.65 15.8293 16.3688 15.4714 16.1438 15.1646H19.9125C20.1375 14.8577 20.3625 14.4997 20.5312 14.1418H15.525C15.3563 13.835 15.1875 13.477 15.075 13.1191H20.925C21.2625 12.1475 21.4875 11.1247 21.4875 10.0509C21.4875 9.33501 21.375 8.67019 21.2625 8.00546H14.7375C14.7938 7.64746 14.9063 7.34064 15.0188 6.98273H20.8687C20.7562 6.62473 20.5875 6.26682 20.4187 5.96001H15.4688C15.6375 5.60201 15.8625 5.29519 16.0875 4.93728H19.8562C19.6312 4.57928 19.35 4.22137 19.0125 3.91455H16.9313C17.2688 3.55655 17.6063 3.24973 18 2.94292C16.1438 1.35769 13.6125 0.437233 10.8562 0.437233C10.8562 0.334961 10.8563 0.334961 10.8 0.334961Z" fill="#23004E"/>
<path d="M0.28125 10C0.28125 15.3182 5.00625 19.6648 10.9125 19.6648C13.6687 19.6648 16.1437 18.6932 18.0562 17.1591C18.45 16.8523 18.7875 16.4944 19.125 16.1364H16.9313C16.65 15.8295 16.3688 15.4716 16.1438 15.1648H19.9125C20.1375 14.858 20.3625 14.5 20.5312 14.1421H15.525C15.3563 13.8353 15.1875 13.4773 15.075 13.1194H20.925C21.2625 12.1477 21.4875 11.125 21.4875 10.0512C21.4875 9.33527 21.375 8.67045 21.2625 8.00573H14.7375C14.7938 7.64773 14.9063 7.34091 15.0188 6.983H20.8687C20.7562 6.625 20.5875 6.26709 20.4187 5.96027H15.4688C15.6375 5.60227 15.8625 5.29545 16.0875 4.93755H19.8562C19.6312 4.57955 19.35 4.22164 19.0125 3.91482H16.9313C17.2688 3.55682 17.6063 3.25 18 2.94318C16.1438 1.35795 13.6125 0.4375 10.8562 0.4375H10.8" fill="#23004E"/>
<path d="M10.9125 19.6648C13.6687 19.6648 16.1437 18.6932 18.0562 17.1591C18.45 16.8523 18.7875 16.4944 19.125 16.1364H16.9312C16.65 15.8295 16.3687 15.4716 16.1437 15.1648H19.9125C20.1375 14.858 20.3625 14.5 20.5312 14.1421H15.525C15.3562 13.8353 15.1875 13.4773 15.075 13.1194H20.925C21.2625 12.1477 21.4875 11.125 21.4875 10.0512C21.4875 9.33527 21.375 8.67045 21.2625 8.00573H14.7375C14.7937 7.64773 14.9062 7.34091 15.0187 6.983H20.8687C20.7562 6.625 20.5875 6.26709 20.4187 5.96027H15.4687C15.6375 5.60227 15.8625 5.29545 16.0875 4.93755H19.8562C19.6312 4.57955 19.35 4.22164 19.0125 3.91482H16.9312C17.2687 3.55682 17.6062 3.25 18 2.94318C16.1437 1.35795 13.6125 0.4375 10.8562 0.4375H10.8" fill="#23004E"/>
<path d="M14.6812 12.4541L14.85 11.5847C14.7937 11.5847 14.6812 11.6359 14.5687 11.6359C14.175 11.6359 14.1187 11.4314 14.175 11.3291L14.5125 9.53928H15.1312L15.3 8.56774H14.7375L14.85 7.9541H13.725C13.725 7.9541 13.05 11.3291 13.05 11.7382C13.05 12.3518 13.4437 12.6075 13.95 12.6075C14.2875 12.6075 14.5687 12.5052 14.6812 12.4541Z" fill="white"/>
<path d="M15.075 10.8184C15.075 12.2502 16.1438 12.6081 17.0438 12.6081C17.8875 12.6081 18.225 12.4548 18.225 12.4548L18.45 11.4831C18.45 11.4831 17.8313 11.7389 17.2688 11.7389C16.0313 11.7389 16.2563 10.9207 16.2563 10.9207H18.5625C18.5625 10.9207 18.7313 10.2559 18.7313 10.0002C18.7313 9.3354 18.3375 8.51721 17.1 8.51721C15.9188 8.41494 15.075 9.53994 15.075 10.8184ZM17.0438 9.3354C17.6625 9.3354 17.55 10.0002 17.55 10.0513H16.3125C16.3125 10.0002 16.425 9.3354 17.0438 9.3354Z" fill="white"/>
<path d="M24.1875 12.4543L24.4125 11.3293C24.4125 11.3293 23.85 11.585 23.4563 11.585C22.6688 11.585 22.3313 11.0225 22.3313 10.4089C22.3313 9.1816 23.0063 8.51687 23.7938 8.51687C24.3563 8.51687 24.8063 8.82369 24.8063 8.82369L24.975 7.74978C24.975 7.74978 24.3 7.49414 23.6812 7.49414C22.3875 7.49414 21.0938 8.51687 21.0938 10.46C21.0938 11.7384 21.7687 12.6077 23.1187 12.6077C23.5687 12.6077 24.1875 12.4543 24.1875 12.4543Z" fill="white"/>
<path d="M8.49376 8.41504C7.70626 8.41504 7.14376 8.61958 7.14376 8.61958L6.97501 9.48895C6.97501 9.48895 7.48126 9.2844 8.21251 9.2844C8.60626 9.2844 8.94376 9.33549 8.94376 9.64231C8.94376 9.84686 8.88751 9.89804 8.88751 9.89804C8.88751 9.89804 8.55001 9.89804 8.38126 9.89804C7.42501 9.89804 6.35626 10.2559 6.35626 11.4321C6.35626 12.3526 7.03126 12.5571 7.42501 12.5571C8.21251 12.5571 8.55001 12.0969 8.60626 12.0969L8.55001 12.506H9.56251L10.0125 9.69349C10.0125 8.46622 8.88751 8.41504 8.49376 8.41504ZM8.71876 10.7162C8.71876 10.8697 8.60626 11.6878 7.93126 11.6878C7.59376 11.6878 7.48126 11.4321 7.48126 11.2787C7.48126 11.023 7.65001 10.665 8.49376 10.665C8.66251 10.7162 8.71876 10.7162 8.71876 10.7162Z" fill="white"/>
<path d="M11.0813 12.5565C11.3625 12.5565 12.7688 12.6076 12.7688 11.2269C12.7688 9.94846 11.4188 10.2042 11.4188 9.69283C11.4188 9.4371 11.6438 9.33483 12.0375 9.33483C12.2063 9.33483 12.825 9.38601 12.825 9.38601L12.9938 8.46555C12.9938 8.46555 12.6 8.36328 11.925 8.36328C11.0813 8.36328 10.2375 8.6701 10.2375 9.69283C10.2375 10.8689 11.6438 10.7667 11.6438 11.2269C11.6438 11.5337 11.25 11.5848 10.9688 11.5848C10.4625 11.5848 9.95629 11.4315 9.95629 11.4315L9.78754 12.3519C9.84379 12.4542 10.125 12.5565 11.0813 12.5565Z" fill="white"/>
<path d="M33.525 7.59668L33.3 8.97741C33.3 8.97741 32.85 8.46604 32.2312 8.46604C31.2187 8.46604 30.3187 9.59104 30.3187 10.9206C30.3187 11.7388 30.7687 12.608 31.725 12.608C32.4 12.608 32.7937 12.199 32.7937 12.199L32.7375 12.557H33.8625L34.7062 7.64786L33.525 7.59668ZM33.0187 10.307C33.0187 10.8694 32.7375 11.5853 32.1187 11.5853C31.725 11.5853 31.5 11.2785 31.5 10.7671C31.5 9.94895 31.8937 9.43759 32.4 9.43759C32.7937 9.43759 33.0187 9.69332 33.0187 10.307Z" fill="white"/>
<path d="M2.36251 12.5059L3.03751 8.82395L3.15001 12.5059H3.93751L5.40001 8.82395L4.78126 12.5059H5.96251L6.86251 7.59668H5.00626L3.88126 10.6138L3.82501 7.59668H2.19376L1.29376 12.5059H2.36251Z" fill="white"/>
<path d="M19.8 12.5062C20.1375 10.8187 20.1937 9.43803 20.9812 9.69367C21.0937 9.02894 21.2625 8.77321 21.375 8.51758C21.375 8.51758 21.3187 8.51758 21.15 8.51758C20.6437 8.51758 20.25 9.13122 20.25 9.13122L20.3625 8.56867H19.2937L18.5625 12.5573H19.8V12.5062Z" fill="white"/>
<path d="M26.775 8.41504C25.9875 8.41504 25.425 8.61958 25.425 8.61958L25.2563 9.48895C25.2563 9.48895 25.7625 9.2844 26.4938 9.2844C26.8875 9.2844 27.225 9.33549 27.225 9.64231C27.225 9.84686 27.1688 9.89804 27.1688 9.89804C27.1688 9.89804 26.8313 9.89804 26.6625 9.89804C25.7063 9.89804 24.6375 10.2559 24.6375 11.4321C24.6375 12.3526 25.3125 12.5571 25.7063 12.5571C26.4938 12.5571 26.8313 12.0969 26.8875 12.0969L26.8313 12.506H27.8438L28.2938 9.69349C28.35 8.46622 27.1688 8.41504 26.775 8.41504ZM27.0563 10.7162C27.0563 10.8697 26.9438 11.6878 26.2688 11.6878C25.9313 11.6878 25.8188 11.4321 25.8188 11.2787C25.8188 11.023 25.9875 10.665 26.8313 10.665C27 10.7162 27 10.7162 27.0563 10.7162Z" fill="white"/>
<path d="M29.25 12.5062C29.5875 10.8187 29.6438 9.43803 30.4313 9.69367C30.5438 9.02894 30.7125 8.77321 30.825 8.51758C30.825 8.51758 30.7688 8.51758 30.6 8.51758C30.0938 8.51758 29.7 9.13122 29.7 9.13122L29.8125 8.56867H28.7438L28.0125 12.5573H29.25V12.5062Z" fill="white"/>
<path d="M12.9375 11.7382C12.9375 12.3518 13.3313 12.6075 13.8375 12.6075C14.2312 12.6075 14.5687 12.5052 14.6812 12.4541L14.85 11.5847C14.7937 11.5847 14.6812 11.6359 14.5687 11.6359C14.175 11.6359 14.1187 11.4314 14.175 11.3291L14.5125 9.53928H15.1312L15.3 8.56774H14.7375L14.85 7.9541" fill="white"/>
<path d="M15.6375 10.8184C15.6375 12.2502 16.1438 12.6081 17.0438 12.6081C17.8875 12.6081 18.225 12.4548 18.225 12.4548L18.45 11.4831C18.45 11.4831 17.8313 11.7389 17.2688 11.7389C16.0313 11.7389 16.2563 10.9207 16.2563 10.9207H18.5625C18.5625 10.9207 18.7313 10.2559 18.7313 10.0002C18.7313 9.3354 18.3375 8.51721 17.1 8.51721C15.9188 8.41494 15.6375 9.53994 15.6375 10.8184ZM17.0438 9.3354C17.6625 9.3354 17.775 10.0002 17.775 10.0513H16.3125C16.3125 10.0002 16.425 9.3354 17.0438 9.3354Z" fill="white"/>
<path d="M24.1875 12.4543L24.4125 11.3293C24.4125 11.3293 23.85 11.585 23.4563 11.585C22.6688 11.585 22.3313 11.0225 22.3313 10.4089C22.3313 9.1816 23.0063 8.51687 23.7938 8.51687C24.3563 8.51687 24.8063 8.82369 24.8063 8.82369L24.975 7.74978C24.975 7.74978 24.3 7.49414 23.6812 7.49414C22.3875 7.49414 21.6562 8.51687 21.6562 10.46C21.6562 11.7384 21.7687 12.6077 23.1187 12.6077C23.5687 12.6077 24.1875 12.4543 24.1875 12.4543Z" fill="white"/>
<path d="M6.97501 9.54031C6.97501 9.54031 7.48126 9.33576 8.21251 9.33576C8.60626 9.33576 8.94376 9.38685 8.94376 9.69367C8.94376 9.89822 8.88751 9.9494 8.88751 9.9494C8.88751 9.9494 8.55001 9.9494 8.38126 9.9494C7.42501 9.9494 6.35626 10.3073 6.35626 11.4835C6.35626 12.4039 7.03126 12.6085 7.42501 12.6085C8.21251 12.6085 8.55001 12.1482 8.60626 12.1482L8.55001 12.5573H9.56251L10.0125 9.74485C10.0125 8.56867 8.88751 8.51758 8.43751 8.51758L6.97501 9.54031ZM9.28126 10.7164C9.28126 10.8699 8.60626 11.688 7.93126 11.688C7.59376 11.688 7.48126 11.4323 7.48126 11.2789C7.48126 11.0232 7.65001 10.6653 8.49376 10.6653C8.66251 10.7164 9.28126 10.7164 9.28126 10.7164Z" fill="white"/>
<path d="M9.84375 12.4542C9.84375 12.4542 10.1812 12.5565 11.1375 12.5565C11.4187 12.5565 12.825 12.6076 12.825 11.2269C12.825 9.94846 11.475 10.2042 11.475 9.69283C11.475 9.4371 11.7 9.33483 12.0937 9.33483C12.2625 9.33483 12.8812 9.38601 12.8812 9.38601L13.05 8.46555C13.05 8.46555 12.6562 8.36328 11.9812 8.36328C11.1375 8.36328 10.8562 8.6701 10.8562 9.69283C10.8562 10.8689 11.7 10.7667 11.7 11.2269C11.7 11.5337 11.3062 11.5848 11.025 11.5848" fill="white"/>
<path d="M33.3 8.97701C33.3 8.97701 32.85 8.46564 32.2313 8.46564C31.2188 8.46564 30.8813 9.59064 30.8813 10.9202C30.8813 11.7384 30.7688 12.6076 31.725 12.6076C32.4 12.6076 32.7938 12.1986 32.7938 12.1986L32.7375 12.5566H33.8625L34.7063 7.64746L33.3 8.97701ZM33.2438 10.3066C33.2438 10.869 32.7375 11.5849 32.1188 11.5849C31.725 11.5849 31.5 11.2781 31.5 10.7667C31.5 9.94855 31.8938 9.43719 32.4 9.43719C32.7938 9.43719 33.2438 9.69291 33.2438 10.3066Z" fill="white"/>
<path d="M2.36251 12.5059L3.03751 8.82395L3.15001 12.5059H3.93751L5.40001 8.82395L4.78126 12.5059H5.96251L6.86251 7.59668H5.45626L3.88126 10.6138L3.82501 7.59668H3.20626L1.29376 12.5059H2.36251Z" fill="white"/>
<path d="M18.6188 12.5062H19.8C20.1375 10.8187 20.1938 9.43803 20.9813 9.69367C21.0938 9.02894 21.2625 8.77321 21.375 8.51758C21.375 8.51758 21.3188 8.51758 21.15 8.51758C20.6438 8.51758 20.25 9.13122 20.25 9.13122L20.3625 8.56867" fill="white"/>
<path d="M25.2563 9.54031C25.2563 9.54031 25.7625 9.33576 26.4938 9.33576C26.8875 9.33576 27.225 9.38685 27.225 9.69367C27.225 9.89822 27.1688 9.9494 27.1688 9.9494C27.1688 9.9494 26.8313 9.9494 26.6625 9.9494C25.7063 9.9494 24.6375 10.3073 24.6375 11.4835C24.6375 12.4039 25.3125 12.6085 25.7063 12.6085C26.4938 12.6085 26.8313 12.1482 26.8875 12.1482L26.8313 12.5573H27.8438L28.2938 9.74485C28.2938 8.56867 27.1688 8.51758 26.7188 8.51758L25.2563 9.54031ZM27.5625 10.7164C27.5625 10.8699 26.8875 11.688 26.2125 11.688C25.875 11.688 25.7625 11.4323 25.7625 11.2789C25.7625 11.0232 25.9313 10.6653 26.775 10.6653C27 10.7164 27.5625 10.7164 27.5625 10.7164Z" fill="white"/>
<path d="M28.0687 12.5062H29.25C29.5875 10.8187 29.6437 9.43803 30.4312 9.69367C30.5437 9.02894 30.7125 8.77321 30.825 8.51758C30.825 8.51758 30.7687 8.51758 30.6 8.51758C30.0937 8.51758 29.7 9.13122 29.7 9.13122L29.8125 8.56867" fill="white"/>
</g>
<defs>
<clipPath id="clip0_2_100">
<rect width="36" height="20" fill="white"/>
</clipPath>
</defs>
</svg>
