<svg width="30" height="36" viewBox="0 0 30 36" fill="none" xmlns="http://www.w3.org/2000/svg">
<g clip-path="url(#clip0_15_199)">
<path d="M29.6116 4.25143L14.9934 0L0.375162 4.25143C0.264282 4.28221 0.166971 4.34973 0.0989514 4.44305C0.0309314 4.53638 -0.00380852 4.65006 0.000331476 4.76571V20.7771C0.0907015 22.9926 0.932502 25.1101 2.38559 26.7771C3.84487 28.6395 5.5535 30.2894 7.4628 31.68C9.7723 33.3363 12.2241 34.782 14.7889 36H15.1978C17.7674 34.791 20.2199 33.3448 22.5239 31.68C24.4264 30.321 26.1347 28.706 27.6011 26.88C29.0542 25.213 29.896 23.0955 29.9864 20.88V4.86857C30.0172 4.73677 29.9952 4.59804 29.925 4.4825C29.8548 4.36696 29.7422 4.28393 29.6116 4.25143ZM28.9641 20.7771C28.9641 24.8229 25.2159 28.4229 21.8084 30.7543C19.6457 32.2706 17.3669 33.612 14.9934 34.7657H14.7548H14.5163C12.1428 33.612 9.864 32.2706 7.7013 30.7543C4.77084 28.4229 1.02258 24.8229 1.02258 20.88V5.24571L14.9934 1.02857L28.9641 5.24571V20.7771Z" fill="#200340"/>
<path d="M25.6783 7.28905L15.2738 4.05234C15.0508 3.98255 14.8123 3.98255 14.5893 4.05234L4.3217 7.21944C4.07828 7.30132 3.86711 7.46047 3.71925 7.67347C3.57139 7.88647 3.49464 8.1421 3.50029 8.4028V20.0271C3.50632 21.813 4.10983 23.5436 5.2116 24.9344C6.3328 26.2613 7.6217 27.4315 9.0448 28.4147C10.7338 29.7479 12.5446 30.9134 14.4524 31.895C14.603 31.9642 14.7663 32 14.9316 32C15.0968 32 15.2601 31.9642 15.4107 31.895C17.3185 30.9134 19.1293 29.7479 20.8183 28.4147C22.2414 27.4315 23.5303 26.2613 24.6515 24.9344C25.7881 23.5809 26.4396 21.8754 26.4997 20.0967V8.4724C26.5054 8.2117 26.4286 7.95608 26.2807 7.74308C26.1329 7.53007 25.9217 7.37093 25.6783 7.28905ZM13.9048 28.7627C12.7163 28.1117 11.5728 27.3791 10.4823 26.5701C8.3603 24.9692 5.7934 22.5677 5.7934 20.0967V9.3773L13.9048 6.87141V28.7627ZM24.1724 20.0967C24.1724 22.5677 21.6055 24.9692 19.4835 26.5701C18.385 27.3671 17.2422 28.0992 16.061 28.7627V6.87141L24.2408 9.3773L24.1724 20.0967Z" fill="#200340"/>
</g>
<defs>
<clipPath id="clip0_15_199">
<rect width="30" height="36" fill="white"/>
</clipPath>
</defs>
</svg>
