<svg width="56" height="34" viewBox="0 0 56 34" fill="none" xmlns="http://www.w3.org/2000/svg">
<g clip-path="url(#clip0_15_208)">
<path d="M55.125 16.8954L50.8287 9.76412C50.4805 9.18057 49.9862 8.69707 49.3941 8.36088C48.8021 8.0247 48.1327 7.84735 47.4513 7.84617H41.2563L42.4025 2.6154C42.4675 2.29799 42.4607 1.97012 42.3826 1.65565C42.3044 1.34118 42.1569 1.04803 41.9507 0.797519C41.7445 0.547009 41.4849 0.345443 41.1907 0.207487C40.8965 0.0695318 40.5752 -0.00134328 40.25 1.928e-05H9.72125C9.21891 0.00353966 8.73295 0.178537 8.34443 0.495829C7.95591 0.813121 7.68831 1.25353 7.58625 1.74361L7.1225 3.85335C7.10986 3.91059 7.10866 3.96976 7.11897 4.02746C7.12928 4.08517 7.15089 4.14028 7.18258 4.18966C7.21427 4.23904 7.25541 4.28172 7.30365 4.31527C7.35189 4.34881 7.4063 4.37255 7.46375 4.38514C7.5212 4.39774 7.58058 4.39893 7.6385 4.38866C7.69642 4.37839 7.75174 4.35685 7.8013 4.32528C7.85086 4.29371 7.8937 4.25272 7.92736 4.20465C7.96103 4.15659 7.98486 4.10239 7.9975 4.04514L8.46125 1.92668C8.52198 1.63548 8.67928 1.3731 8.90782 1.18176C9.13637 0.990416 9.42288 0.881247 9.72125 0.871814H40.25C40.4457 0.872524 40.6388 0.916842 40.8151 1.00152C40.9915 1.0862 41.1465 1.2091 41.269 1.36122C41.3915 1.51334 41.4783 1.69083 41.523 1.88068C41.5677 2.07054 41.5693 2.26795 41.5275 2.45848L40.3025 8.04668C40.2749 8.0897 40.2542 8.13677 40.2413 8.18617L35.9625 27.8974H15.75C15.7232 27.6235 15.6735 27.3523 15.6013 27.0867V26.9908C15.5301 26.7416 15.4364 26.4994 15.3212 26.2672L15.2162 26.1539C15.0976 25.9296 14.9631 25.714 14.8138 25.5087L14.735 25.4128C14.5823 25.2126 14.4125 25.0259 14.2275 24.8549L14.14 24.7764C13.953 24.6048 13.7509 24.4502 13.5362 24.3144L13.44 24.2533C13.2157 24.1199 12.9817 24.0033 12.74 23.9046H12.6525C12.4 23.8068 12.1394 23.731 11.8737 23.678H11.8125C11.235 23.5617 10.64 23.5617 10.0625 23.678H10.0013C9.73558 23.731 9.47503 23.8068 9.2225 23.9046H9.135C8.89328 24.0033 8.6593 24.1199 8.435 24.2533L8.33875 24.3144C8.12409 24.4502 7.92204 24.6048 7.735 24.7764L7.6475 24.8549C7.4625 25.0259 7.2927 25.2126 7.14 25.4128L7.06125 25.5087C6.91189 25.714 6.77739 25.9296 6.65875 26.1539L6.60625 26.2585C6.49113 26.4907 6.39742 26.7329 6.32625 26.9821V27.078C6.23577 27.3449 6.16844 27.619 6.125 27.8974H2.79125L4.375 23.2421C4.40171 23.1865 4.4163 23.1259 4.4178 23.0644C4.41931 23.0028 4.4077 22.9416 4.38374 22.8848C4.35978 22.828 4.32401 22.777 4.2788 22.7349C4.23358 22.6929 4.17995 22.661 4.12142 22.6411C4.0629 22.6213 4.00082 22.614 3.93927 22.6198C3.87772 22.6256 3.8181 22.6443 3.76435 22.6747C3.71059 22.7052 3.66392 22.7466 3.6274 22.7963C3.59089 22.846 3.56536 22.9028 3.5525 22.9631L2.45875 26.1539H2.135C1.76705 26.1535 1.40835 26.2687 1.10989 26.4832C0.811436 26.6976 0.588406 27.0003 0.472501 27.3482L0 28.7692H6.125C6.125 30.0409 6.63203 31.2605 7.53455 32.1597C8.43707 33.0589 9.66115 33.5641 10.9375 33.5641C12.2139 33.5641 13.4379 33.0589 14.3405 32.1597C15.243 31.2605 15.75 30.0409 15.75 28.7692H39.375C39.375 30.0409 39.882 31.2605 40.7845 32.1597C41.6871 33.0589 42.9111 33.5641 44.1875 33.5641C45.4639 33.5641 46.6879 33.0589 47.5904 32.1597C48.493 31.2605 49 30.0409 49 28.7692H54.25L54.355 28.4467C54.4975 28.013 54.4637 27.541 54.2608 27.1319C54.058 26.7228 53.7023 26.4092 53.27 26.2585L55.4225 20.2169C55.6221 19.6757 55.6989 19.0972 55.6474 18.5229C55.596 17.9487 55.4176 17.3928 55.125 16.8954ZM10.9375 32.2564C10.1587 32.2564 9.39746 32.0263 8.74994 31.5953C8.10242 31.1642 7.59774 30.5515 7.29972 29.8346C7.0017 29.1178 6.92373 28.329 7.07566 27.568C7.22759 26.807 7.6026 26.108 8.15327 25.5593C8.70394 25.0107 9.40553 24.637 10.1693 24.4856C10.9331 24.3343 11.7248 24.412 12.4443 24.7089C13.1638 25.0058 13.7788 25.5086 14.2114 26.1538C14.6441 26.7989 14.875 27.5574 14.875 28.3333C14.8727 29.3731 14.4571 30.3696 13.7192 31.1048C12.9813 31.84 11.9811 32.2541 10.9375 32.2564ZM44.1875 32.2564C43.4087 32.2564 42.6475 32.0263 41.9999 31.5953C41.3524 31.1642 40.8477 30.5515 40.5497 29.8346C40.2517 29.1178 40.1737 28.329 40.3257 27.568C40.4776 26.807 40.8526 26.108 41.4033 25.5593C41.9539 25.0107 42.6555 24.637 43.4193 24.4856C44.1831 24.3343 44.9748 24.412 45.6943 24.7089C46.4138 25.0058 47.0288 25.5086 47.4614 26.1538C47.8941 26.7989 48.125 27.5574 48.125 28.3333C48.1227 29.3731 47.7071 30.3696 46.9692 31.1048C46.2313 31.84 45.2311 32.2541 44.1875 32.2564ZM54.6 19.9205L51.7563 27.8974H49C48.9732 27.6235 48.9235 27.3523 48.8512 27.0867V26.9908C48.7786 26.7421 48.6849 26.5001 48.5713 26.2672L48.4662 26.1539C48.3457 25.9307 48.2112 25.7152 48.0638 25.5087L47.985 25.4128C47.8323 25.2126 47.6625 25.0259 47.4775 24.8549L47.39 24.7677C47.2006 24.6015 46.9988 24.45 46.7863 24.3144L46.69 24.2533C46.4676 24.1165 46.2333 23.9998 45.99 23.9046H45.9025C45.65 23.8068 45.3894 23.731 45.1237 23.678H45.0625C44.4851 23.5605 43.8899 23.5605 43.3125 23.678H43.2513C42.9856 23.731 42.725 23.8068 42.4725 23.9046H42.385C42.1417 23.9998 41.9074 24.1165 41.685 24.2533L41.5887 24.3144C41.3762 24.45 41.1744 24.6015 40.985 24.7677L40.8975 24.8549C40.7125 25.0259 40.5427 25.2126 40.39 25.4128L40.3112 25.5087C40.1638 25.7152 40.0293 25.9307 39.9088 26.1539L39.8563 26.2585C39.7426 26.4914 39.6489 26.7334 39.5762 26.9821V27.078C39.4858 27.3449 39.4184 27.619 39.375 27.8974H36.8375L41.0462 8.71796H47.4338C47.9635 8.71826 48.484 8.85585 48.9443 9.11721C49.4045 9.37858 49.7886 9.75474 50.0588 10.2087L54.3287 17.34C54.5615 17.7238 54.7065 18.1541 54.7534 18.6001C54.8003 19.0461 54.7479 19.497 54.6 19.9205Z" fill="#200340" stroke="#200340"/>
<path d="M48.5713 11.5604C48.38 11.2268 48.1037 10.9495 47.7702 10.7566C47.4368 10.5637 47.0581 10.462 46.6725 10.4619H43.3125C43.2178 10.4619 43.1257 10.4925 43.05 10.5491C42.9743 10.6057 42.919 10.6852 42.8925 10.7758L41.1425 16.8783C41.1254 16.9435 41.1228 17.0116 41.1349 17.0778C41.147 17.1441 41.1735 17.2069 41.2125 17.2619C41.2528 17.3166 41.3055 17.3609 41.3664 17.3912C41.4272 17.4215 41.4945 17.437 41.5625 17.4363H48.1688C48.5537 17.4379 48.9321 17.3379 49.2656 17.1465C49.5992 16.9551 49.8758 16.6791 50.0675 16.3465C50.2605 16.0171 50.3621 15.6426 50.3621 15.2611C50.3621 14.8797 50.2605 14.5052 50.0675 14.1758L48.5713 11.5604ZM49.3063 15.9193C49.1917 16.1189 49.026 16.2845 48.8262 16.3994C48.6263 16.5143 48.3995 16.5742 48.1688 16.5732H42.14L43.645 11.3424H46.6725C46.9043 11.3413 47.1321 11.4023 47.3322 11.5188C47.5322 11.6353 47.6973 11.8032 47.81 12.005L49.315 14.6204C49.4256 14.8178 49.483 15.0405 49.4815 15.2667C49.4799 15.4928 49.4196 15.7147 49.3063 15.9106V15.9193Z" fill="#200340" stroke="#200340"/>
<path d="M10.9375 26.1543C10.5049 26.1543 10.0819 26.2821 9.72219 26.5216C9.36246 26.7611 9.08208 27.1015 8.91652 27.4997C8.75095 27.898 8.70763 28.3362 8.79203 28.759C8.87644 29.1818 9.08478 29.5701 9.3907 29.8749C9.69663 30.1797 10.0864 30.3873 10.5107 30.4714C10.9351 30.5555 11.3749 30.5123 11.7746 30.3474C12.1743 30.1824 12.516 29.9031 12.7563 29.5446C12.9967 29.1862 13.125 28.7648 13.125 28.3338C13.125 27.7557 12.8945 27.2014 12.4843 26.7927C12.0741 26.3839 11.5177 26.1543 10.9375 26.1543ZM10.9375 29.6415C10.6779 29.6415 10.4242 29.5648 10.2083 29.4211C9.99248 29.2774 9.82425 29.0732 9.72491 28.8342C9.62557 28.5953 9.59958 28.3323 9.65022 28.0787C9.70086 27.825 9.82587 27.592 10.0094 27.4091C10.193 27.2262 10.4268 27.1017 10.6814 27.0512C10.936 27.0008 11.1999 27.0267 11.4398 27.1256C11.6796 27.2246 11.8846 27.3922 12.0288 27.6073C12.173 27.8223 12.25 28.0751 12.25 28.3338C12.25 28.6806 12.1117 29.0132 11.8656 29.2585C11.6194 29.5037 11.2856 29.6415 10.9375 29.6415Z" fill="#200340" stroke="#200340"/>
<path d="M44.1875 26.1543C43.7549 26.1543 43.3319 26.2821 42.9722 26.5216C42.6125 26.7611 42.3321 27.1015 42.1665 27.4997C42.0009 27.898 41.9576 28.3362 42.042 28.759C42.1264 29.1818 42.3348 29.5701 42.6407 29.8749C42.9466 30.1797 43.3364 30.3873 43.7607 30.4714C44.1851 30.5555 44.6249 30.5123 45.0246 30.3474C45.4243 30.1824 45.766 29.9031 46.0063 29.5446C46.2467 29.1862 46.375 28.7648 46.375 28.3338C46.375 27.7557 46.1445 27.2014 45.7343 26.7927C45.3241 26.3839 44.7677 26.1543 44.1875 26.1543ZM44.1875 29.6415C43.9279 29.6415 43.6742 29.5648 43.4583 29.4211C43.2425 29.2774 43.0743 29.0732 42.9749 28.8342C42.8756 28.5953 42.8496 28.3323 42.9002 28.0787C42.9509 27.825 43.0759 27.592 43.2594 27.4091C43.443 27.2262 43.6768 27.1017 43.9314 27.0512C44.186 27.0008 44.4499 27.0267 44.6898 27.1256C44.9296 27.2246 45.1346 27.3922 45.2788 27.6073C45.423 27.8223 45.5 28.0751 45.5 28.3338C45.5 28.6806 45.3617 29.0132 45.1156 29.2585C44.8694 29.5037 44.5356 29.6415 44.1875 29.6415Z" fill="#200340" stroke="#200340"/>
<path d="M2.625 7.84613H21.875C22.1071 7.84613 22.3296 7.75428 22.4937 7.59079C22.6578 7.42729 22.75 7.20555 22.75 6.97433C22.75 6.74312 22.6578 6.52137 22.4937 6.35788C22.3296 6.19439 22.1071 6.10254 21.875 6.10254H2.625C2.39294 6.10254 2.17038 6.19439 2.00628 6.35788C1.84219 6.52137 1.75 6.74312 1.75 6.97433C1.75 7.20555 1.84219 7.42729 2.00628 7.59079C2.17038 7.75428 2.39294 7.84613 2.625 7.84613Z" fill="#200340" stroke="#200340"/>
<path d="M19.25 15.6924C19.25 15.4611 19.1578 15.2394 18.9937 15.0759C18.8296 14.9124 18.6071 14.8206 18.375 14.8206H3.5C3.26794 14.8206 3.04538 14.9124 2.88128 15.0759C2.71719 15.2394 2.625 15.4611 2.625 15.6924C2.625 15.9236 2.71719 16.1453 2.88128 16.3088C3.04538 16.4723 3.26794 16.5641 3.5 16.5641H18.375C18.6071 16.5641 18.8296 16.4723 18.9937 16.3088C19.1578 16.1453 19.25 15.9236 19.25 15.6924Z" fill="#200340" stroke="#200340"/>
<path d="M21 11.3337C21 11.1025 20.9078 10.8807 20.7437 10.7173C20.5796 10.5538 20.3571 10.4619 20.125 10.4619H4.375C4.14294 10.4619 3.92038 10.5538 3.75628 10.7173C3.59219 10.8807 3.5 11.1025 3.5 11.3337C3.5 11.5649 3.59219 11.7867 3.75628 11.9502C3.92038 12.1137 4.14294 12.2055 4.375 12.2055H20.125C20.3571 12.2055 20.5796 12.1137 20.7437 11.9502C20.9078 11.7867 21 11.5649 21 11.3337Z" fill="#200340" stroke="#200340"/>
<path d="M1.75 12.2055C2.23325 12.2055 2.625 11.8152 2.625 11.3337C2.625 10.8522 2.23325 10.4619 1.75 10.4619C1.26675 10.4619 0.875 10.8522 0.875 11.3337C0.875 11.8152 1.26675 12.2055 1.75 12.2055Z" fill="#200340" stroke="#200340"/>
<path d="M5.25 19.1794C5.01794 19.1794 4.79538 19.2713 4.63128 19.4348C4.46719 19.5983 4.375 19.82 4.375 20.0512C4.375 20.2825 4.46719 20.5042 4.63128 20.6677C4.79538 20.8312 5.01794 20.923 5.25 20.923H16.625C16.8571 20.923 17.0796 20.8312 17.2437 20.6677C17.4078 20.5042 17.5 20.2825 17.5 20.0512C17.5 19.82 17.4078 19.5983 17.2437 19.4348C17.0796 19.2713 16.8571 19.1794 16.625 19.1794H5.25Z" fill="#200340" stroke="#200340"/>
<path d="M2.625 20.923C3.10825 20.923 3.5 20.5327 3.5 20.0512C3.5 19.5698 3.10825 19.1794 2.625 19.1794C2.14175 19.1794 1.75 19.5698 1.75 20.0512C1.75 20.5327 2.14175 20.923 2.625 20.923Z" fill="#200340" stroke="#200340"/>
</g>
<defs>
<clipPath id="clip0_15_208">
<rect width="56" height="34" fill="white"/>
</clipPath>
</defs>
</svg>
