<svg width="37" height="14" viewBox="0 0 37 14" fill="none" xmlns="http://www.w3.org/2000/svg">
<path d="M13.6437 12.2929L15.4937 1.58789H18.3844L16.5922 12.2929H13.6437Z" fill="#23004E"/>
<path d="M13.6437 12.2929L16.014 1.58789H18.3844L16.5922 12.2929H13.6437Z" fill="#23004E"/>
<path d="M27.0562 1.70726C26.4781 1.46935 25.5531 1.23145 24.3969 1.23145C21.5063 1.23145 19.425 2.71826 19.425 4.85926C19.425 6.46508 20.8703 7.29763 22.0266 7.8329C23.1828 8.36817 23.5297 8.72499 23.5297 9.20072C23.5297 9.91444 22.6047 10.2713 21.7953 10.2713C20.6391 10.2713 20.0031 10.0928 19.0203 9.67654L18.6156 9.49808L18.2109 11.9364C18.9047 12.2338 20.1766 12.5312 21.5063 12.5312C24.5703 12.5312 26.5938 11.0444 26.5938 8.78445C26.5938 7.53554 25.8422 6.58399 24.1078 5.81081C23.0672 5.27563 22.4312 4.97826 22.4312 4.44299C22.4312 3.96717 22.9516 3.49145 24.1078 3.49145C25.0906 3.49145 25.7844 3.66981 26.3047 3.90772L26.5938 4.02672L27.0562 1.70726Z" fill="#23004E"/>
<path d="M27.0562 1.70726C26.4781 1.46935 25.5531 1.23145 24.3969 1.23145C21.5063 1.23145 19.9453 2.71826 19.9453 4.85926C19.9453 6.46508 20.8703 7.29763 22.0266 7.8329C23.1828 8.36817 23.5297 8.72499 23.5297 9.20072C23.5297 9.91444 22.6047 10.2713 21.7953 10.2713C20.6391 10.2713 20.0031 10.0928 19.0203 9.67654L18.6156 9.49808L18.2109 11.9364C18.9047 12.2338 20.1766 12.5312 21.5063 12.5312C24.5703 12.5312 26.5938 11.0444 26.5938 8.78445C26.5938 7.53554 25.8422 6.58399 24.1078 5.81081C23.0672 5.27563 22.4312 4.97826 22.4312 4.44299C22.4312 3.96717 22.9516 3.49145 24.1078 3.49145C25.0906 3.49145 25.7844 3.66981 26.3047 3.90772L26.5938 4.02672L27.0562 1.70726Z" fill="#23004E"/>
<path d="M32.0281 1.58789C31.3344 1.58789 30.8141 1.64735 30.525 2.36098L26.1891 12.2929H29.3109L29.8891 10.5087H33.5891L33.9359 12.2929H36.7109L34.2828 1.58789H32.0281ZM30.6984 8.72453C30.8719 8.18925 31.8547 5.57253 31.8547 5.57253C31.8547 5.57253 32.0859 4.91825 32.2594 4.50198L32.4328 5.51298C32.4328 5.51298 33.0109 8.18925 33.1266 8.78398H30.6984V8.72453Z" fill="#23004E"/>
<path d="M32.7219 1.58789C32.0281 1.58789 31.5078 1.64735 31.2187 2.36098L26.1891 12.2929H29.3109L29.8891 10.5087H33.5891L33.9359 12.2929H36.7109L34.2828 1.58789H32.7219ZM30.6984 8.72453C30.9297 8.1298 31.8547 5.57253 31.8547 5.57253C31.8547 5.57253 32.0859 4.91825 32.2594 4.50198L32.4328 5.51298C32.4328 5.51298 33.0109 8.18925 33.1266 8.78398H30.6984V8.72453Z" fill="#23004E"/>
<path d="M8.32502 9.08146L8.03595 7.53519C7.51564 5.75101 5.83907 3.78846 3.98907 2.83691L6.59064 12.3525H9.71251L14.3953 1.64746H11.2734L8.32502 9.08146Z" fill="#23004E"/>
<path d="M8.32502 9.08146L8.03595 7.53519C7.51564 5.75101 5.83907 3.78846 3.98907 2.83691L6.59064 12.3525H9.71251L14.3953 1.64746H11.8516L8.32502 9.08146Z" fill="#23004E"/>
<path d="M0.289062 1.58789L0.809376 1.7068C4.50938 2.59889 7.05313 4.8588 8.03594 7.53507L6.99532 2.47998C6.82188 1.76625 6.30157 1.58789 5.66563 1.58789H0.289062Z" fill="#23004E"/>
<path d="M0.289062 1.58789C3.98906 2.47998 7.05313 4.79935 8.03594 7.47562L7.05313 3.25307C6.87969 2.53944 6.30157 2.12307 5.66563 2.12307L0.289062 1.58789Z" fill="#23004E"/>
<path d="M0.289062 1.58789C3.98906 2.47998 7.05313 4.79935 8.03594 7.47562L7.34219 5.15616C7.16875 4.44253 6.9375 3.72889 6.12813 3.43153L0.289062 1.58789Z" fill="#23004E"/>
<path d="M11.2156 8.72452L9.25 6.70244L8.325 8.96244L8.09375 7.47562C7.57344 5.69144 5.89688 3.72889 4.04688 2.77734L6.64844 12.2929H9.77031L11.2156 8.72452Z" fill="#23004E"/>
<path d="M16.5922 12.2926L14.1062 9.67578L13.6437 12.2926H16.5922Z" fill="#23004E"/>
<path d="M23.2406 8.60547C23.4719 8.84338 23.5875 9.02183 23.5297 9.25974C23.5297 9.97338 22.6047 10.3302 21.7953 10.3302C20.6391 10.3302 20.0031 10.1518 19.0203 9.73547L18.6156 9.55711L18.2109 11.9955C18.9047 12.2928 20.1766 12.5901 21.5063 12.5901C23.3563 12.5901 24.8594 12.0549 25.7266 11.1034L23.2406 8.60547Z" fill="#23004E"/>
<path d="M26.5938 12.2929H29.3109L29.8891 10.5087H33.5891L33.9359 12.2929H36.7109L35.7281 7.95132L32.2594 4.50195L32.4328 5.4535C32.4328 5.4535 33.0109 8.12977 33.1266 8.7245H30.6984C30.9297 8.12977 31.8547 5.5725 31.8547 5.5725C31.8547 5.5725 32.0859 4.91823 32.2594 4.50195" fill="#23004E"/>
</svg>
