<svg width="34" height="20" viewBox="0 0 34 20" fill="none" xmlns="http://www.w3.org/2000/svg">
<path fill-rule="evenodd" clip-rule="evenodd" d="M30.6 0.90918C29 0.90918 12.0602 0.909179 2.6 0.90918C1.8 0.90918 1 1.63645 1 2.36373V16.9092C1 18.3637 1.8 19.091 3.4 19.091C12.3246 19.091 29 19.091 30.6 19.091C32.2 19.091 33 18.3637 33 16.9092V3.091C33 1.63645 32.2 0.90918 30.6 0.90918Z" fill="#23004E"/>
<path fill-rule="evenodd" clip-rule="evenodd" d="M3.70395 7.56843L3.0842 6.19553L2.46798 7.56843H3.70395ZM17.3571 7.02174C17.2327 7.0904 17.0855 7.09269 16.9092 7.09269H15.8092V6.32775H16.9242C17.082 6.32775 17.2466 6.3342 17.3536 6.38987C17.471 6.44004 17.5437 6.54683 17.5437 6.69433C17.5437 6.84484 17.4746 6.96596 17.3571 7.02174C17.4746 6.96596 17.3571 7.02174 17.3571 7.02174ZM25.2044 7.56843L24.5778 6.19553L23.9546 7.56843H25.2044ZM10.5766 9.05446H9.64831L9.64489 6.35725L8.3319 9.05446H7.53687L6.22046 6.35487V9.05446H4.37878L4.03086 8.28631H2.14554L1.79407 9.05446H0.810614L2.4321 5.61061H3.77742L5.31745 8.87122V5.61061H6.79531L7.98032 7.94684L9.06889 5.61061H10.5765V9.05446H10.5766ZM14.2763 9.05446H11.2514V5.61061H14.2763V6.32775H12.1569V6.94851H14.2254V7.65444H12.1569V8.34219H14.2763V9.05446ZM18.5412 6.5381C18.5412 7.08718 18.1381 7.37086 17.9032 7.45604C18.1013 7.5246 18.2705 7.64572 18.3511 7.74606C18.4789 7.91734 18.501 8.07035 18.501 8.37793V9.05446H17.5877L17.5843 8.62016C17.5843 8.41293 17.6061 8.11492 17.4413 7.94923C17.309 7.82812 17.1073 7.80183 16.7813 7.80183H15.8093V9.05446H14.9039V5.61061H16.9866C17.4493 5.61061 17.7903 5.62173 18.083 5.77556C18.3695 5.9294 18.5412 6.15397 18.5412 6.5381C18.5412 6.15397 18.5412 6.5381 18.5412 6.5381ZM19.9903 9.05446H19.0664V5.61061H19.9903V9.05446ZM30.709 9.05446H29.4258L27.7095 6.46965V9.05446H25.8654L25.513 8.28631H23.632L23.2902 9.05446H22.2306C21.7905 9.05446 21.2332 8.96596 20.9176 8.67355C20.5994 8.38114 20.4338 7.98507 20.4338 7.35882C20.4338 6.84806 20.5328 6.38114 20.922 6.01219C21.2147 5.73733 21.6731 5.61061 22.2971 5.61061H23.1737V6.34853H22.3155C21.9851 6.34853 21.7985 6.3932 21.6187 6.55254C21.4644 6.69755 21.3584 6.97167 21.3584 7.33263C21.3584 7.7016 21.4391 7.96763 21.6074 8.14141C21.7468 8.27769 22.0001 8.31902 22.2385 8.31902H22.6451L23.9213 5.61071H25.2781L26.8111 8.86811V5.61071H28.1898L29.7815 8.00917V5.61071H30.709V9.05446ZM0.800102 9.73089H2.34721L2.69605 8.96596H3.47703L3.82496 9.73089H6.86901V9.14608L7.14072 9.73338H8.72097L8.99268 9.13735V9.73089H16.5577L16.5542 8.47525H16.7006C16.8031 8.47848 16.833 8.4871 16.833 8.64093V9.73089H20.7457V9.43859C21.0613 9.59233 21.5521 9.73089 22.198 9.73089H23.8441L24.1964 8.96596H24.9773L25.3218 9.73089H28.4939V9.00429L28.9742 9.73089H31.5161V4.92773H29.0005V5.495L28.6482 4.92773H26.067V5.495L25.7435 4.92773H22.2568C21.6731 4.92773 21.1601 5.0018 20.7457 5.2082V4.92773H18.3395V5.2082C18.0758 4.99546 17.7165 4.92773 17.3169 4.92773H8.52638L7.93656 6.16831L7.33086 4.92773H4.56206V5.495L4.2579 4.92773H1.89656L0.799988 7.21142V9.73089H0.800102ZM33.0079 12.2669H31.3576C31.1929 12.2669 31.0834 12.2725 30.9912 12.3291C30.8957 12.3849 30.8589 12.4676 30.8589 12.5769C30.8589 12.7069 30.9395 12.7953 31.0569 12.8336C31.1524 12.8637 31.255 12.8726 31.4058 12.8726L31.8966 12.8846C32.3918 12.8956 32.7224 12.973 32.9239 13.1617C32.9606 13.188 32.9827 13.2176 33.0079 13.247V12.2669ZM33.0079 14.5379C32.7879 14.8303 32.3594 14.9786 31.7791 14.9786H30.0305V14.2398H31.772C31.9448 14.2398 32.0657 14.2192 32.1385 14.1546C32.2016 14.1013 32.2455 14.0239 32.2455 13.9299C32.2455 13.8296 32.2016 13.7499 32.1349 13.7021C32.0692 13.6496 31.9736 13.6256 31.8159 13.6256C30.9657 13.5994 29.905 13.6496 29.905 12.5595C29.905 12.0598 30.254 11.5339 31.2042 11.5339H33.0078V10.8486H31.332C30.8263 10.8486 30.4589 10.9586 30.1988 11.1298V10.8486H27.7201C27.3237 10.8486 26.8584 10.9379 26.6384 11.1298V10.8486H22.2121V11.1298C21.8598 10.8988 21.2654 10.8486 20.9911 10.8486H18.0715V11.1298C17.7928 10.8846 17.173 10.8486 16.7953 10.8486H13.5277L12.78 11.5842L12.0797 10.8486H7.19865V15.6551H11.9878L12.7583 14.9078L13.4841 15.6551L16.4362 15.6575V14.5267H16.7264C17.1181 14.5323 17.58 14.5179 17.9876 14.3577V15.6549H20.4225V14.4022H20.54C20.6899 14.4022 20.7046 14.4078 20.7046 14.544V15.6548H28.1015C28.5711 15.6548 29.062 15.5456 29.3338 15.3473V15.6548H31.6801C32.1683 15.6548 32.6451 15.5926 33.0079 15.4333V14.5379ZM29.396 13.1617C29.5723 13.3276 29.6668 13.5371 29.6668 13.8916C29.6668 14.6326 29.1575 14.9786 28.2443 14.9786H26.4807V14.2398H28.2372C28.409 14.2398 28.5308 14.2192 28.6071 14.1546C28.6694 14.1013 28.7141 14.0239 28.7141 13.9299C28.7141 13.8296 28.6657 13.7499 28.6036 13.7021C28.5343 13.6496 28.4388 13.6256 28.2811 13.6256C27.4343 13.5994 26.3739 13.6496 26.3739 12.5595C26.3739 12.0598 26.7192 11.5339 27.6684 11.5339H29.4837V12.2671H27.8227C27.658 12.2671 27.551 12.2727 27.4599 12.3293C27.3607 12.3851 27.3239 12.4679 27.3239 12.5772C27.3239 12.7071 27.4082 12.7955 27.5221 12.8337C27.6176 12.8639 27.7202 12.8727 27.8745 12.8727L28.3619 12.8847C28.8535 12.8956 29.1909 12.9729 29.396 13.1617C29.1909 12.9729 29.396 13.1617 29.396 13.1617ZM21.2253 12.949C21.1042 13.0144 20.9544 13.02 20.7782 13.02H19.6782V12.2463H20.7932C20.9544 12.2463 21.1158 12.2495 21.2253 12.3086C21.3427 12.3643 21.4128 12.471 21.4128 12.6184C21.4128 12.7658 21.3427 12.8846 21.2253 12.949C21.3427 12.8846 21.2253 12.949 21.2253 12.949ZM21.7722 13.3777C21.9737 13.4454 22.1385 13.5666 22.2158 13.6669C22.3436 13.8351 22.3621 13.992 22.3658 14.2956V14.9786H21.4567V14.5476C21.4567 14.3403 21.4786 14.0335 21.3103 13.8733C21.178 13.7499 20.9764 13.7204 20.646 13.7204H19.6783V14.9786H18.7685V11.5338H20.859C21.3174 11.5338 21.6513 11.5522 21.9485 11.6964C22.2343 11.8534 22.414 12.0684 22.414 12.4614C22.4139 13.0111 22.0105 13.2917 21.7722 13.3777C22.0105 13.2917 21.7722 13.3777 21.7722 13.3777ZM22.9161 11.5338H25.9382V12.2462H23.8178V12.8725H25.8864V13.5753H23.8178V14.2606L25.9382 14.2637V14.9786H22.9161V11.5338ZM16.8068 13.1236H15.6367V12.2463H16.8173C17.1442 12.2463 17.3712 12.3675 17.3712 12.6686C17.3712 12.9666 17.1548 13.1236 16.8068 13.1236ZM14.7348 14.6653L13.3446 13.2621L14.7348 11.9036V14.6653ZM11.1446 14.2606H8.9183V13.5753H10.9062V12.8725H8.9183V12.2462H11.1885L12.1789 13.25L11.1446 14.2606ZM18.3433 12.6686C18.3433 13.6256 17.558 13.8231 16.7665 13.8231H15.6367V14.9786H13.8767L12.7617 13.8382L11.603 14.9786H8.01631V11.5338H11.6582L12.7722 12.6629L13.924 11.5338H16.8173C17.5359 11.5338 18.3433 11.7146 18.3433 12.6686C18.3433 11.7146 18.3433 12.6686 18.3433 12.6686Z" fill="white"/>
</svg>
