<svg width="34" height="20" viewBox="0 0 34 20" fill="none" xmlns="http://www.w3.org/2000/svg">
<g clip-path="url(#clip0_2_89)">
<path d="M30.8947 19.4313H3.10536C1.93643 19.4313 0.98877 18.5698 0.98877 17.5071V2.49254C0.98877 1.42972 1.93643 0.568359 3.10536 0.568359H30.8947C32.0637 0.568359 33.0113 1.42972 33.0113 2.49254V17.5071C33.0113 18.5698 32.0637 19.4313 30.8947 19.4313Z" fill="#23004E"/>
<path d="M30.8947 19.4313H3.10536C1.93643 19.4313 0.98877 18.5698 0.98877 17.5071V2.49254C0.98877 1.42972 1.93643 0.568359 3.10536 0.568359H30.8947C32.0637 0.568359 33.0113 1.42972 33.0113 2.49254V17.5071C33.0113 18.5698 32.0637 19.4313 30.8947 19.4313Z" stroke="#23004E" stroke-width="0.8" stroke-miterlimit="10" stroke-linecap="round" stroke-linejoin="round"/>
<path d="M3.92499 11.9149C3.92499 10.6299 3.92499 9.35923 3.92499 8.0845C3.94135 8.08086 3.95624 8.0745 3.97125 8.07459C4.4382 8.07759 4.9067 8.0605 5.3718 8.08941C6.117 8.13577 6.7419 8.41114 7.121 9.02114C7.8676 10.2221 7.0529 11.7236 5.5768 11.8827C5.2056 11.9224 4.8273 11.9069 4.4522 11.9143C4.2797 11.9176 4.1072 11.9149 3.92499 11.9149ZM4.7538 11.2567C4.9097 11.2567 5.0568 11.2638 5.2029 11.2552C5.528 11.236 5.8345 11.1659 6.0873 10.962C6.6679 10.4935 6.7008 9.60404 6.1583 9.0955C5.7667 8.72832 5.2675 8.72041 4.7538 8.73132C4.7538 9.57514 4.7538 10.4113 4.7538 11.2567Z" fill="white"/>
<path d="M27.3002 8.08229C27.316 8.07883 27.3251 8.07511 27.3344 8.0752C27.8013 8.07811 28.2685 8.07411 28.7351 8.08865C28.8985 8.09374 29.0656 8.12947 29.2223 8.17611C29.7541 8.33429 30.0495 8.74992 30.0143 9.25902C29.9942 9.54947 29.9133 9.81402 29.6732 10.0223C29.5252 10.1506 29.3474 10.2275 29.1536 10.2783C29.1254 10.2856 29.0973 10.2923 29.0569 10.3023C29.4975 10.8382 29.9334 11.3685 30.3831 11.9154C30.1821 11.9154 30.0039 11.9154 29.8258 11.9154C29.7017 11.9154 29.5774 11.9117 29.4536 11.9168C29.3857 11.9197 29.3483 11.8962 29.3119 11.8465C28.9683 11.377 28.6215 10.9097 28.277 10.4408C28.2418 10.3929 28.2091 10.3521 28.125 10.3827C28.125 10.8858 28.125 11.3947 28.125 11.9093C27.8439 11.9093 27.5749 11.9093 27.3002 11.9093C27.3002 10.6336 27.3002 9.36093 27.3002 8.08229ZM28.1258 9.84329C28.3845 9.84347 28.6399 9.85829 28.8735 9.74065C29.0887 9.6322 29.1648 9.4542 29.1621 9.24029C29.1595 9.03429 29.0736 8.86965 28.8657 8.77329C28.6319 8.66474 28.3802 8.67947 28.1258 8.68756C28.1258 9.07483 28.1258 9.45392 28.1258 9.84329Z" fill="white"/>
<path d="M24.4241 8.07812C25.1998 8.07812 25.9691 8.07812 26.7462 8.07812C26.7462 8.29431 26.7462 8.50612 26.7462 8.72585C26.2501 8.72585 25.7549 8.72585 25.2518 8.72585C25.2518 9.01049 25.2518 9.2874 25.2518 9.57467C25.7297 9.57467 26.2049 9.57467 26.6873 9.57467C26.6873 9.7964 26.6873 10.0079 26.6873 10.228C26.208 10.228 25.7327 10.228 25.2508 10.228C25.2508 10.5739 25.2508 10.911 25.2508 11.2591C25.7501 11.2591 26.2476 11.2591 26.7492 11.2591C26.7492 11.4799 26.7492 11.6897 26.7492 11.9072C25.974 11.9072 25.2026 11.9072 24.4241 11.9072C24.4241 10.6339 24.4241 9.36158 24.4241 8.07812Z" fill="white"/>
<path d="M11.6815 8.44348C11.5359 8.6163 11.3957 8.78266 11.252 8.95303C11.0943 8.80021 10.9276 8.67694 10.7012 8.65075C10.4746 8.62457 10.2625 8.65821 10.0941 8.81148C9.9124 8.97666 9.9336 9.2233 10.1509 9.34585C10.2966 9.42785 10.4615 9.48185 10.6177 9.54839C10.8562 9.65039 11.103 9.73939 11.3317 9.85757C11.6623 10.0283 11.8113 10.3048 11.8263 10.6478C11.8462 11.1016 11.6951 11.4856 11.2812 11.7599C10.969 11.967 10.6099 12.0248 10.2309 12.0046C9.654 11.9739 9.2304 11.7135 8.9238 11.2958C9.0938 11.1306 9.2599 10.9692 9.4196 10.8139C9.523 10.9222 9.605 11.0315 9.7113 11.115C9.9485 11.3015 10.2306 11.3624 10.5353 11.2936C10.8448 11.2238 11.0306 10.9508 10.9656 10.6832C10.9318 10.5439 10.8428 10.4378 10.706 10.3755C10.5518 10.3054 10.3891 10.2507 10.23 10.1895C10.0588 10.1238 9.8835 10.0657 9.7174 9.99066C9.1855 9.7503 9.0225 9.33076 9.174 8.80757C9.3008 8.37012 9.7403 8.06385 10.2838 8.02003C10.7959 7.97866 11.2516 8.11275 11.6481 8.41103C11.658 8.4183 11.6657 8.42803 11.6815 8.44348Z" fill="white"/>
<path d="M19.9974 8.0743C20.2861 8.0743 20.5663 8.07212 20.8464 8.07776C20.8725 8.07821 20.9078 8.1233 20.9215 8.15412C21.2127 8.81503 21.501 9.47731 21.7904 10.1391C21.8614 10.3018 21.9332 10.4641 22.0115 10.6421C22.0314 10.6018 22.0462 10.5741 22.0589 10.546C22.4121 9.74749 22.7658 8.9493 23.117 8.1503C23.1407 8.09667 23.1669 8.07112 23.2362 8.0723C23.5006 8.07649 23.7651 8.07403 24.0449 8.07403C24.029 8.11212 24.0177 8.14158 24.0045 8.17012C23.4229 9.4254 22.8408 10.6802 22.2614 11.9362C22.2339 11.996 22.2003 12.0165 22.1318 12.0129C22.0374 12.0079 21.9419 12.0162 21.8478 12.0091C21.8146 12.0067 21.7664 11.9823 21.7547 11.9566C21.1689 10.6773 20.5864 9.39676 20.0038 8.11612C20.0003 8.1084 20.001 8.09903 19.9974 8.0743Z" fill="white"/>
<path d="M15.3483 9.09365C15.2157 9.00328 15.1024 8.91237 14.9752 8.84201C14.4845 8.57037 13.8541 8.63392 13.4115 8.99201C12.7508 9.52674 12.7815 10.5704 13.472 11.0538C13.9897 11.4163 14.7115 11.3977 15.2057 11.0091C15.2472 10.9764 15.2884 10.9434 15.3485 10.8958C15.3485 10.9531 15.3485 10.9928 15.3485 11.0326C15.3484 11.2584 15.3472 11.4841 15.3497 11.71C15.3502 11.7579 15.3338 11.7832 15.2847 11.8046C14.2765 12.2419 13.0409 11.9436 12.4408 11.1005C11.6125 9.93674 12.2679 8.34574 13.8574 8.03392C14.3488 7.93765 14.8257 7.98556 15.2774 8.19483C15.3067 8.20837 15.3449 8.2411 15.3453 8.26556C15.3501 8.53801 15.3483 8.81083 15.3483 9.09365Z" fill="white"/>
<path d="M19.9819 9.99824C20.0007 11.0198 19.0758 11.8539 17.9034 11.8522C16.7232 11.8506 15.8169 11.052 15.8236 9.97661C15.8301 8.96115 16.7482 8.1607 17.9042 8.15433C19.0818 8.14779 20.0006 8.98888 19.9819 9.99824Z" fill="white"/>
<path d="M8.5972 11.9101C8.3231 11.9101 8.0567 11.9101 7.7835 11.9101C7.7835 10.633 7.7835 9.36069 7.7835 8.08105C8.0539 8.08105 8.3222 8.08105 8.5972 8.08105C8.5972 9.3556 8.5972 10.628 8.5972 11.9101Z" fill="white"/>
</g>
<defs>
<clipPath id="clip0_2_89">
<rect width="34" height="20" fill="white"/>
</clipPath>
</defs>
</svg>
