<svg width="8" height="14" viewBox="0 0 8 14" fill="none" xmlns="http://www.w3.org/2000/svg">
<path fill-rule="evenodd" clip-rule="evenodd" d="M7.35396 0.645917C7.30752 0.599354 7.25234 0.562411 7.19159 0.537205C7.13085 0.511998 7.06573 0.499023 6.99996 0.499023C6.93419 0.499023 6.86907 0.511998 6.80833 0.537205C6.74758 0.562411 6.69241 0.599354 6.64596 0.645917L0.645961 6.64592C0.599398 6.69236 0.562455 6.74754 0.537249 6.80828C0.512042 6.86903 0.499067 6.93415 0.499067 6.99992C0.499067 7.06568 0.512042 7.13081 0.537249 7.19155C0.562455 7.2523 0.599398 7.30747 0.645961 7.35392L6.64596 13.3539C6.73985 13.4478 6.86719 13.5005 6.99996 13.5005C7.13274 13.5005 7.26007 13.4478 7.35396 13.3539C7.44785 13.26 7.50059 13.1327 7.50059 12.9999C7.50059 12.8671 7.44785 12.7398 7.35396 12.6459L1.70696 6.99992L7.35396 1.35392C7.40052 1.30747 7.43747 1.2523 7.46267 1.19155C7.48788 1.13081 7.50085 1.06568 7.50085 0.999917C7.50085 0.93415 7.48788 0.869029 7.46267 0.808284C7.43747 0.747539 7.40052 0.692363 7.35396 0.645917V0.645917Z" fill="#23004E" />
</svg>
