<svg width="17" height="20" viewBox="0 0 17 20" fill="none" xmlns="http://www.w3.org/2000/svg">
<g clip-path="url(#clip0_2_127)">
<path d="M5.36194 11.6893C5.42966 11.2975 5.79659 11.0081 6.23023 11.0081H8.03502C11.5829 11.0081 14.3592 9.68661 15.1709 5.86429C15.1958 5.75075 15.2337 5.53271 15.2337 5.53271C15.4645 4.11838 15.2324 3.15889 14.3985 2.28826C13.4825 1.32885 11.8247 0.917969 9.70408 0.917969H3.54957C3.11611 0.917969 2.74766 1.20742 2.67895 1.5991L0.116206 16.506C0.0658515 16.8001 0.314038 17.0656 0.638099 17.0656H4.43732L5.39152 11.5143L5.36194 11.6893Z" fill="#23004E"/>
<path d="M8.03501 12.0113H6.41682L5.20853 19.0817H7.83401C8.21338 19.0817 8.53631 18.8282 8.59533 18.4844L8.62607 18.3346L9.23011 14.8256L9.26942 14.6325C9.32817 14.2885 9.65124 14.0355 10.0295 14.0355H10.5096C13.6126 14.0355 16.0415 12.8796 16.7513 9.53652C17.0362 8.19458 16.8987 7.0695 16.1951 6.25684C15.3134 10.0201 12.5002 12.0113 8.03501 12.0113Z" fill="#23004E"/>
</g>
<defs>
<clipPath id="clip0_2_127">
<rect width="17" height="18.1818" fill="white" transform="translate(0 0.90918)"/>
</clipPath>
</defs>
</svg>
