<svg width="17" height="16" viewBox="0 0 17 16" fill="none" xmlns="http://www.w3.org/2000/svg">
<path d="M16.9123 5.76003C16.8611 5.61673 16.7682 5.49199 16.6457 5.4018C16.5231 5.31161 16.3764 5.26007 16.2243 5.25379H11.3015L9.73858 0.508187C9.68283 0.352247 9.57805 0.218571 9.43994 0.127189C9.30183 0.0358075 9.13782 -0.00835941 8.9725 0.00130649C8.81062 -0.000545082 8.65232 0.0490215 8.5204 0.14287C8.38849 0.236718 8.28975 0.370007 8.23842 0.523547L6.67554 5.26915H1.76802C1.60846 5.26734 1.45233 5.31548 1.3215 5.40683C1.19067 5.49818 1.09169 5.62817 1.03842 5.77859C0.986553 5.92842 0.983848 6.0909 1.0307 6.24237C1.07754 6.39385 1.1715 6.52643 1.2989 6.62083L5.28482 9.58467L3.7213 14.3616C3.61122 14.6752 3.72258 15.0227 3.9965 15.2173C4.13028 15.3121 4.29064 15.3621 4.45459 15.3602C4.61854 15.3582 4.77766 15.3044 4.90914 15.2064L9.08194 12.1344L13.2707 15.2064C13.3523 15.2673 13.445 15.3115 13.5437 15.3364C13.6423 15.3614 13.7449 15.3667 13.8456 15.3521C13.9463 15.3374 14.0431 15.303 14.1305 15.2509C14.2179 15.1988 14.2941 15.1299 14.3549 15.0483C14.5015 14.8499 14.5405 14.5933 14.4586 14.3616L12.8957 9.58467L16.8029 6.60547C16.9055 6.49284 16.971 6.35136 16.9905 6.20022C17.01 6.04909 16.9825 5.89562 16.9117 5.76067L16.9123 5.76003Z" fill="#FED624"/>
</svg>
